<svg width="12" height="13" viewBox="0 0 12 13" fill="none" xmlns="http://www.w3.org/2000/svg">
<path d="M10.0832 12.3361H1.9165C1.45238 12.3361 1.00726 12.1517 0.679067 11.8235C0.350878 11.4953 0.166504 11.0502 0.166504 10.5861V1.25277C0.166504 1.09806 0.227962 0.949684 0.337358 0.840288C0.446754 0.730892 0.595128 0.669434 0.749837 0.669434H8.9165C9.07121 0.669434 9.21959 0.730892 9.32898 0.840288C9.43838 0.949684 9.49984 1.09806 9.49984 1.25277V8.25277H11.8332V10.5861C11.8332 11.0502 11.6488 11.4953 11.3206 11.8235C10.9924 12.1517 10.5473 12.3361 10.0832 12.3361ZM9.49984 9.41943V10.5861C9.49984 10.7408 9.5613 10.8892 9.67069 10.9986C9.78009 11.108 9.92846 11.1694 10.0832 11.1694C10.2379 11.1694 10.3863 11.108 10.4957 10.9986C10.605 10.8892 10.6665 10.7408 10.6665 10.5861V9.41943H9.49984ZM8.33317 11.1694V1.8361H1.33317V10.5861C1.33317 10.7408 1.39463 10.8892 1.50403 10.9986C1.61342 11.108 1.76179 11.1694 1.9165 11.1694H8.33317ZM2.49984 3.5861H7.1665V4.75277H2.49984V3.5861ZM2.49984 5.91943H7.1665V7.0861H2.49984V5.91943ZM2.49984 8.25277H5.4165V9.41943H2.49984V8.25277Z" fill="#434343"/>
</svg>
