<svg width="10" height="13" viewBox="0 0 10 13" fill="none" xmlns="http://www.w3.org/2000/svg">
<path d="M0.333496 12.3359C0.333496 11.0983 0.825161 9.91128 1.70033 9.03611C2.5755 8.16094 3.76249 7.66927 5.00016 7.66927C6.23784 7.66927 7.42482 8.16094 8.29999 9.03611C9.17516 9.91128 9.66683 11.0983 9.66683 12.3359H8.50016C8.50016 11.4077 8.13141 10.5174 7.47504 9.86106C6.81866 9.20469 5.92842 8.83594 5.00016 8.83594C4.0719 8.83594 3.18167 9.20469 2.52529 9.86106C1.86891 10.5174 1.50016 11.4077 1.50016 12.3359H0.333496ZM5.00016 7.08594C3.06641 7.08594 1.50016 5.51969 1.50016 3.58594C1.50016 1.65219 3.06641 0.0859375 5.00016 0.0859375C6.93391 0.0859375 8.50016 1.65219 8.50016 3.58594C8.50016 5.51969 6.93391 7.08594 5.00016 7.08594ZM5.00016 5.91927C6.28933 5.91927 7.3335 4.8751 7.3335 3.58594C7.3335 2.29677 6.28933 1.2526 5.00016 1.2526C3.711 1.2526 2.66683 2.29677 2.66683 3.58594C2.66683 4.8751 3.711 5.91927 5.00016 5.91927Z" fill="#434343"/>
</svg>
