<svg width="11" height="12" viewBox="0 0 11 12" fill="none" xmlns="http://www.w3.org/2000/svg">
<path d="M7.64975 4.02762L4.35042 7.32753C4.2947 7.38135 4.25027 7.44571 4.21969 7.51688C4.18912 7.58805 4.17303 7.6646 4.17236 7.74205C4.17168 7.81951 4.18644 7.89632 4.21577 7.96801C4.2451 8.0397 4.28842 8.10483 4.34319 8.1596C4.39796 8.21437 4.46309 8.25768 4.53478 8.28701C4.60647 8.31634 4.68328 8.3311 4.76074 8.33043C4.83819 8.32976 4.91474 8.31367 4.98591 8.28309C5.05707 8.25252 5.12144 8.20808 5.17525 8.15237L8.47517 4.85303C8.80339 4.52482 8.98778 4.07966 8.98778 3.61549C8.98778 3.15132 8.80339 2.70617 8.47517 2.37795C8.14695 2.04973 7.7018 1.86534 7.23763 1.86534C6.77346 1.86534 6.3283 2.04973 6.00009 2.37795L2.70017 5.67787C2.42371 5.94744 2.20354 6.26923 2.05241 6.62456C1.90129 6.97989 1.82222 7.36169 1.8198 7.74781C1.81738 8.13394 1.89166 8.5167 2.03832 8.8739C2.18498 9.23109 2.40111 9.55561 2.67416 9.82863C2.94722 10.1016 3.27177 10.3177 3.62898 10.4643C3.9862 10.6109 4.36897 10.6852 4.7551 10.6827C5.14122 10.6802 5.52301 10.6011 5.87832 10.4499C6.23363 10.2988 6.55538 10.0785 6.82492 9.80204L10.1248 6.5027L10.9497 7.32753L7.64975 10.6275C7.27056 11.0066 6.82039 11.3074 6.32496 11.5127C5.82952 11.7179 5.29851 11.8235 4.76225 11.8235C4.22599 11.8235 3.69499 11.7179 3.19955 11.5127C2.70411 11.3074 2.25394 11.0066 1.87475 10.6275C1.49556 10.2483 1.19477 9.79809 0.989552 9.30266C0.784335 8.80722 0.678711 8.27621 0.678711 7.73995C0.678711 7.20369 0.784335 6.67269 0.989552 6.17725C1.19477 5.68181 1.49556 5.23164 1.87475 4.85245L5.17525 1.55312C5.72534 1.02182 6.4621 0.72784 7.22684 0.734485C7.99158 0.741131 8.72312 1.04787 9.26389 1.58865C9.80466 2.12942 10.1114 2.86096 10.1181 3.6257C10.1247 4.39044 9.83071 5.1272 9.29942 5.67729L6.00009 8.97837C5.83753 9.14088 5.64456 9.26979 5.43219 9.35773C5.21981 9.44567 4.9922 9.49092 4.76234 9.49089C4.53248 9.49086 4.30487 9.44556 4.09252 9.35757C3.88017 9.26958 3.68723 9.14063 3.52471 8.97808C3.36219 8.81552 3.23329 8.62255 3.14535 8.41018C3.05741 8.1978 3.01216 7.97019 3.01219 7.74033C3.01222 7.51047 3.05752 7.28287 3.14551 7.07051C3.23349 6.85816 3.36245 6.66522 3.525 6.5027L6.82492 3.20278L7.64975 4.02762Z" fill="#434343"/>
</svg>