<svg width="12" height="11" viewBox="0 0 12 11" fill="none" xmlns="http://www.w3.org/2000/svg">
<path d="M11.2498 0.252686C11.4045 0.252686 11.5529 0.314144 11.6623 0.42354C11.7717 0.532936 11.8332 0.681309 11.8332 0.836019V10.1694C11.8332 10.3241 11.7717 10.4724 11.6623 10.5818C11.5529 10.6912 11.4045 10.7527 11.2498 10.7527H0.749837C0.595128 10.7527 0.446754 10.6912 0.337358 10.5818C0.227962 10.4724 0.166504 10.3241 0.166504 10.1694V0.836019C0.166504 0.681309 0.227962 0.532936 0.337358 0.42354C0.446754 0.314144 0.595128 0.252686 0.749837 0.252686H11.2498ZM10.6665 1.41935H1.33317V9.58602H10.6665V1.41935ZM4.48259 3.16935L6.34867 7.83602H5.09159L4.85825 7.25269H2.93909L2.70575 7.83602H1.44925L3.31592 3.16935H4.48259ZM10.0832 3.16935V7.83602H8.33317C7.86904 7.83602 7.42392 7.65164 7.09573 7.32346C6.76755 6.99527 6.58317 6.55015 6.58317 6.08602C6.58317 5.62189 6.76755 5.17677 7.09573 4.84858C7.42392 4.52039 7.86904 4.33602 8.33317 4.33602H8.91592L8.9165 3.16935H10.0832ZM8.9165 5.50269H8.33317C8.18449 5.50285 8.04149 5.55978 7.93337 5.66185C7.82526 5.76391 7.7602 5.90341 7.75149 6.05183C7.74277 6.20026 7.79106 6.34641 7.88649 6.46042C7.98192 6.57444 8.11728 6.64771 8.26492 6.66527L8.33317 6.66935H8.9165V5.50269ZM3.89925 4.85227L3.40517 6.08602H4.39217L3.89925 4.85227Z" fill="#434343"/>
</svg>