<svg width="210" height="101" viewBox="0 0 210 101" fill="none" xmlns="http://www.w3.org/2000/svg">
<rect width="210" height="75" rx="10" fill="url(#paint0_linear_169_10272)"/>
<mask id="mask0_169_10272" style="mask-type:alpha" maskUnits="userSpaceOnUse" x="0" y="0" width="210" height="75">
<rect width="210" height="75" rx="10" fill="#4F46BA"/>
</mask>
<g mask="url(#mask0_169_10272)">
<path d="M16 41.1979V27.5209L23.8491 22.5566L33.6604 28.7366V52.4434L16 41.1979Z" fill="white"/>
<path d="M52 41.2613V27.5377L43.8491 22.5566L33.6604 28.8167V52.4434L52 41.2613Z" fill="white"/>
<path opacity="0.6" d="M69.274 32H72.97C75.238 32 76.974 31.034 76.974 28.948C76.974 27.562 76.148 26.764 75.042 26.498V26.442C75.924 26.12 76.442 25.154 76.442 24.202C76.442 22.27 74.818 21.64 72.69 21.64H69.274V32ZM71.346 25.854V23.236H72.578C73.824 23.236 74.426 23.586 74.426 24.496C74.426 25.336 73.866 25.854 72.55 25.854H71.346ZM71.346 30.404V27.394H72.788C74.216 27.394 74.958 27.828 74.958 28.836C74.958 29.9 74.188 30.404 72.788 30.404H71.346ZM77.4733 32H79.5733L81.0573 26.61C81.3653 25.532 81.6593 24.342 81.9393 23.222H81.9953C82.2893 24.328 82.5833 25.532 82.8913 26.61L84.3753 32H86.5453L83.2273 21.64H80.7913L77.4733 32ZM79.5313 29.34H84.4593V27.744H79.5313V29.34ZM87.772 32H94.282V30.264H89.844V27.506H93.47V25.756H89.844V23.362H94.128V21.64H87.772V32ZM96.3853 32H98.2333V27.674C98.2333 26.694 98.0793 25.252 97.9673 24.272H98.0233L98.8633 26.708L100.459 31.076H101.649L103.245 26.708L104.099 24.272H104.169C104.057 25.252 103.889 26.694 103.889 27.674V32H105.779V21.64H103.483L101.761 26.498C101.551 27.142 101.369 27.814 101.131 28.486H101.075C100.851 27.814 100.669 27.142 100.431 26.498L98.6673 21.64H96.3853V32ZM108.321 32H110.393V21.64H108.321V32ZM112.942 32H114.902V27.856C114.902 26.652 114.734 25.35 114.636 24.244H114.706L115.756 26.456L118.752 32H120.866V21.64H118.892V25.77C118.892 26.946 119.06 28.332 119.172 29.41H119.102L118.052 27.17L115.042 21.64H112.942V32Z" fill="white"/>
<path d="M73.184 54.224C75.312 54.224 77.104 52.704 77.104 50.176C77.104 47.6 75.6 46.448 73.616 46.448C72.896 46.448 71.792 46.928 71.216 47.776L71.344 49.616C71.824 48.752 72.48 48.448 73.072 48.448C73.856 48.448 74.512 48.88 74.512 50.176C74.512 51.536 73.872 52.096 73.12 52.096C72.224 52.096 71.328 51.248 71.328 48.144C71.328 45.152 72.352 44.144 73.664 44.144C74.32 44.144 75.056 44.56 75.44 44.976L76.944 43.296C76.192 42.528 75.04 41.872 73.472 41.872C71.008 41.872 68.736 43.84 68.736 48.144C68.736 52.48 70.944 54.224 73.184 54.224ZM78.422 54H86.678V51.6H84.502C83.958 51.6 83.142 51.68 82.55 51.76C84.374 49.92 86.134 47.664 86.134 45.616C86.134 43.344 84.534 41.872 82.23 41.872C80.534 41.872 79.446 42.464 78.278 43.712L79.83 45.248C80.406 44.64 81.03 44.096 81.846 44.096C82.806 44.096 83.398 44.688 83.398 45.776C83.398 47.504 81.398 49.664 78.422 52.368V54ZM88.924 57.632C91.148 56.96 92.332 55.408 92.332 53.344C92.332 51.68 91.644 50.688 90.396 50.688C89.404 50.688 88.62 51.328 88.62 52.288C88.62 53.312 89.436 53.888 90.316 53.888C90.7 53.888 91.052 53.776 91.324 53.536L90.428 51.968L90.46 53.84C90.476 54.768 89.74 55.632 88.348 56.112L88.924 57.632ZM97.9574 54.224C100.453 54.224 102.117 52.832 102.117 50.992C102.117 49.36 101.253 48.368 100.117 47.776V47.696C100.933 47.136 101.621 46.192 101.621 45.056C101.621 43.12 100.197 41.872 98.0534 41.872C95.8614 41.872 94.2774 43.104 94.2774 45.088C94.2774 46.352 94.9014 47.264 95.8294 47.952V48.032C94.7254 48.608 93.8774 49.552 93.8774 51.04C93.8774 52.928 95.6214 54.224 97.9574 54.224ZM98.6774 47.008C97.5094 46.544 96.7734 46.032 96.7734 45.088C96.7734 44.24 97.3334 43.84 97.9894 43.84C98.8214 43.84 99.3174 44.384 99.3174 45.248C99.3174 45.856 99.1254 46.464 98.6774 47.008ZM98.0214 52.24C97.0934 52.24 96.3094 51.68 96.3094 50.704C96.3094 49.952 96.6294 49.232 97.1094 48.768C98.5654 49.392 99.4774 49.84 99.4774 50.88C99.4774 51.824 98.8534 52.24 98.0214 52.24ZM105.723 54H108.587C108.795 49.344 109.083 47.088 111.835 43.824V42.08H103.675V44.464H108.795C106.555 47.568 105.947 50.08 105.723 54ZM117.073 54.224C119.441 54.224 121.473 52.976 121.473 50.752C121.473 49.216 120.497 48.256 119.185 47.856V47.776C120.449 47.264 121.089 46.336 121.089 45.152C121.089 43.024 119.473 41.872 117.009 41.872C115.601 41.872 114.417 42.416 113.313 43.344L114.753 45.088C115.473 44.448 116.081 44.096 116.881 44.096C117.761 44.096 118.241 44.544 118.241 45.36C118.241 46.304 117.601 46.912 115.569 46.912V48.928C118.065 48.928 118.609 49.536 118.609 50.56C118.609 51.456 117.889 51.92 116.785 51.92C115.857 51.92 115.025 51.44 114.305 50.768L112.993 52.56C113.857 53.568 115.185 54.224 117.073 54.224Z" fill="white"/>
<path fill-rule="evenodd" clip-rule="evenodd" d="M171.368 -1.28063C179.227 -11.0136 196.02 -8.66159 207.879 -4.53361C218.277 -0.914121 222.005 11.3708 229.886 19.0888C236.197 25.27 244.765 28.5424 249.36 36.0894C254.957 45.2835 259.911 55.5478 258.563 66.1958C257.076 77.9378 251.746 90.1503 241.728 96.3805C231.885 102.502 219.321 96.6097 207.771 97.7844C194.09 99.176 180.561 109.583 168.001 103.879C155.112 98.0269 143.866 83.3977 145.06 69.3083C146.286 54.8223 168.517 51.5313 173.586 37.9313C178.261 25.3876 162.97 9.1186 171.368 -1.28063Z" fill="#336EC8"/>
<path opacity="0.6" fill-rule="evenodd" clip-rule="evenodd" d="M161.723 -5.28097C169.583 -15.0139 186.375 -12.6619 198.234 -8.53394C208.632 -4.91446 212.36 7.37047 220.241 15.0885C226.553 21.2696 235.121 24.542 239.715 32.0891C245.312 41.2831 250.266 51.5475 248.918 62.1955C247.432 73.9375 242.101 86.15 232.084 92.3802C222.241 98.5018 209.676 92.6094 198.127 93.7841C184.446 95.1756 170.917 105.583 158.356 99.8791C145.467 94.0265 134.222 79.3973 135.415 65.3079C136.642 50.822 158.873 47.5309 163.941 33.931C168.616 21.3873 153.325 5.11827 161.723 -5.28097Z" fill="#009CF4"/>
</g>
<path d="M70.632 97.196C70.982 97.196 71.178 97.14 71.36 97.084L71.192 96.104C71.038 96.132 70.982 96.132 70.926 96.132C70.73 96.132 70.562 95.978 70.562 95.572V85.87H69.288V95.488C69.288 96.58 69.666 97.196 70.632 97.196ZM75.0165 97.196C75.9545 97.196 76.8085 96.706 77.5225 96.104H77.5785L77.6905 97H78.7405V92.338C78.7405 90.448 77.9565 89.216 76.0945 89.216C74.8765 89.216 73.8125 89.748 73.1125 90.196L73.6165 91.092C74.2045 90.686 75.0025 90.266 75.8985 90.266C77.1445 90.266 77.4525 91.204 77.4525 92.184C74.2185 92.548 72.7905 93.374 72.7905 95.026C72.7905 96.398 73.7425 97.196 75.0165 97.196ZM75.3665 96.16C74.6245 96.16 74.0365 95.81 74.0365 94.942C74.0365 93.962 74.8905 93.332 77.4525 93.038V95.152C76.7245 95.81 76.1085 96.16 75.3665 96.16ZM80.3432 97H86.1112V95.964H81.9672L85.9712 90.084V89.398H80.7912V90.434H84.3612L80.3432 96.328V97ZM89.1396 97.196C90.0776 97.196 90.9316 96.706 91.6456 96.104H91.7016L91.8136 97H92.8636V92.338C92.8636 90.448 92.0796 89.216 90.2176 89.216C88.9996 89.216 87.9356 89.748 87.2356 90.196L87.7396 91.092C88.3276 90.686 89.1256 90.266 90.0216 90.266C91.2676 90.266 91.5756 91.204 91.5756 92.184C88.3416 92.548 86.9136 93.374 86.9136 95.026C86.9136 96.398 87.8656 97.196 89.1396 97.196ZM89.4896 96.16C88.7476 96.16 88.1596 95.81 88.1596 94.942C88.1596 93.962 89.0136 93.332 91.5756 93.038V95.152C90.8476 95.81 90.2316 96.16 89.4896 96.16ZM97.8542 97.196C98.7782 97.196 99.5762 96.706 100.178 96.104H100.206L100.318 97H101.368V85.87H100.094V88.782L100.15 90.098C99.4922 89.538 98.9042 89.216 98.0222 89.216C96.2862 89.216 94.7182 90.742 94.7182 93.22C94.7182 95.754 95.9502 97.196 97.8542 97.196ZM98.1342 96.118C96.8042 96.118 96.0482 95.026 96.0482 93.206C96.0482 91.47 97.0142 90.28 98.2322 90.28C98.8622 90.28 99.4502 90.504 100.094 91.092V95.082C99.4642 95.768 98.8482 96.118 98.1342 96.118ZM105.71 97.196C106.648 97.196 107.502 96.706 108.216 96.104H108.272L108.384 97H109.434V92.338C109.434 90.448 108.65 89.216 106.788 89.216C105.57 89.216 104.506 89.748 103.806 90.196L104.31 91.092C104.898 90.686 105.696 90.266 106.592 90.266C107.838 90.266 108.146 91.204 108.146 92.184C104.912 92.548 103.484 93.374 103.484 95.026C103.484 96.398 104.436 97.196 105.71 97.196ZM106.06 96.16C105.318 96.16 104.73 95.81 104.73 94.942C104.73 93.962 105.584 93.332 108.146 93.038V95.152C107.418 95.81 106.802 96.16 106.06 96.16ZM112.493 97.196C113.011 97.196 113.431 96.79 113.431 96.216C113.431 95.628 113.011 95.236 112.493 95.236C111.989 95.236 111.583 95.628 111.583 96.216C111.583 96.79 111.989 97.196 112.493 97.196ZM118.508 97.196C119.418 97.196 120.3 96.832 120.972 96.23L120.426 95.376C119.95 95.796 119.32 96.132 118.634 96.132C117.234 96.132 116.268 94.956 116.268 93.22C116.268 91.456 117.276 90.28 118.676 90.28C119.264 90.28 119.74 90.546 120.188 90.952L120.832 90.112C120.3 89.622 119.6 89.216 118.606 89.216C116.66 89.216 114.952 90.672 114.952 93.22C114.952 95.726 116.492 97.196 118.508 97.196ZM125.248 97.196C127.11 97.196 128.762 95.726 128.762 93.22C128.762 90.672 127.11 89.216 125.248 89.216C123.372 89.216 121.72 90.672 121.72 93.22C121.72 95.726 123.372 97.196 125.248 97.196ZM125.248 96.132C123.918 96.132 123.036 94.956 123.036 93.22C123.036 91.456 123.918 90.28 125.248 90.28C126.564 90.28 127.446 91.456 127.446 93.22C127.446 94.956 126.564 96.132 125.248 96.132ZM130.784 97H132.058V91.484C132.744 90.714 133.388 90.322 133.962 90.322C134.942 90.322 135.39 90.924 135.39 92.352V97H136.664V91.484C137.378 90.714 137.98 90.322 138.568 90.322C139.548 90.322 139.996 90.924 139.996 92.352V97H141.27V92.184C141.27 90.252 140.514 89.216 138.96 89.216C138.036 89.216 137.238 89.818 136.44 90.658C136.146 89.762 135.516 89.216 134.354 89.216C133.444 89.216 132.646 89.79 131.988 90.504H131.946L131.82 89.398H130.784V97Z" fill="#BFBFBF"/>
<defs>
<linearGradient id="paint0_linear_169_10272" x1="105" y1="0" x2="105" y2="75" gradientUnits="userSpaceOnUse">
<stop stop-color="#2AC1BC"/>
<stop offset="1" stop-color="#0BBEB8"/>
</linearGradient>
</defs>
</svg>
