<svg width="30" height="31" viewBox="0 0 30 31" fill="none" xmlns="http://www.w3.org/2000/svg">
<path d="M16.8 0.508996C28.86 0.639496 30 2.375 30 15.5L29.991 17.3C29.8605 29.36 28.125 30.5 15 30.5L13.2 30.491C1.713 30.3665 0.1335 28.787 0.00900006 17.2985L0 15.0365L0.00900006 13.7015C0.1365 1.92649 1.794 0.561495 14.082 0.501495L16.7985 0.508996H16.8ZM9.375 8H8.5005C8.26078 7.99986 8.02898 8.08579 7.84729 8.24216C7.66559 8.39853 7.54608 8.61493 7.5105 8.852L7.5 9.00049V14.4995C7.5 15.002 7.8705 15.4175 8.352 15.4895L8.5005 15.5H9.375C10.815 15.4999 12.2002 16.052 13.2453 17.0427C14.2904 18.0333 14.9157 19.387 14.9925 20.825L15 21.125V21.9995C15 22.502 15.3705 22.9175 15.852 22.9895L16.0005 23H21.4995C21.7392 23.0001 21.971 22.9142 22.1527 22.7578C22.3344 22.6015 22.4539 22.3851 22.4895 22.148L22.5 21.9995V21.125C22.4999 17.7111 21.1697 14.4316 18.7915 11.9823C16.4133 9.53296 13.1744 8.10666 9.762 8.006L9.375 8Z" fill="white"/>
</svg>
