 <svg width="14"
    height="66"
    viewBox="0 0 14 66"
    fill="none"
    xmlns="http://www.w3.org/2000/svg"
>
    <path d="M0 9L14 14.8182V51.1818L0 57V9Z" fill="white" />
    <path
    d="M9.25031 29.3285V28.3622C9.25031 28.2785 9.15406 28.2322 9.08906 28.2835L3.45406 32.6847C3.40618 32.722 3.36744 32.7696 3.34079 32.8241C3.31415 32.8786 3.30029 32.9385 3.30029 32.9991C3.30029 33.0598 3.31415 33.1196 3.34079 33.1741C3.36744 33.2286 3.40618 33.2762 3.45406 33.3135L9.08906 37.7147C9.15531 37.766 9.25031 37.7197 9.25031 37.636V36.6697C9.25031 36.6085 9.22156 36.5497 9.17406 36.5122L4.67406 32.9997L9.17406 29.486C9.22156 29.4485 9.25031 29.3897 9.25031 29.3285V29.3285Z"
    fill="#8C8C8C"
    />
</svg>