<svg width="14" height="24" viewBox="0 0 14 24" fill="none" xmlns="http://www.w3.org/2000/svg">
<path d="M7.00195 5.87805C3.61953 5.87805 0.876953 8.62063 0.876953 12.0031C0.876953 15.3855 3.61953 18.1281 7.00195 18.1281C10.3844 18.1281 13.127 15.3855 13.127 12.0031C13.127 8.62063 10.3844 5.87805 7.00195 5.87805ZM9.26328 14.33L8.36094 14.3259L7.00195 12.7058L5.64434 14.3245L4.74063 14.3286C4.68047 14.3286 4.63125 14.2808 4.63125 14.2193C4.63125 14.1933 4.64082 14.1687 4.65723 14.1482L6.43594 12.029L4.65723 9.91125C4.64071 9.89122 4.63154 9.86613 4.63125 9.84016C4.63125 9.78 4.68047 9.73079 4.74063 9.73079L5.64434 9.73489L7.00195 11.355L8.35957 9.73626L9.26191 9.73215C9.32207 9.73215 9.37129 9.78 9.37129 9.84153C9.37129 9.8675 9.36172 9.89211 9.34531 9.91262L7.56934 12.0304L9.34668 14.1495C9.36309 14.17 9.37266 14.1947 9.37266 14.2206C9.37266 14.2808 9.32344 14.33 9.26328 14.33Z" fill="black" fill-opacity="0.25"/>
</svg>
