<svg width="12" height="13" viewBox="0 0 12 13" fill="none" xmlns="http://www.w3.org/2000/svg">
<path d="M5.99984 0.669434C9.221 0.669434 11.8332 2.98993 11.8332 5.85468C11.8327 6.71405 11.4911 7.53809 10.8834 8.1457C10.2756 8.75331 9.45154 9.09479 8.59217 9.0951H7.44534C6.9075 9.0951 6.47292 9.52968 6.47292 10.0675C6.47292 10.3137 6.57034 10.5406 6.71909 10.7092C6.87484 10.8842 6.97225 11.1111 6.97225 11.3637C6.97225 11.9021 6.52484 12.3361 5.99984 12.3361C2.77867 12.3361 0.166504 9.72393 0.166504 6.50277C0.166504 3.2816 2.77867 0.669434 5.99984 0.669434ZM5.30625 10.0675C5.30602 9.78654 5.3612 9.50828 5.46861 9.24865C5.57603 8.98902 5.73359 8.75312 5.93226 8.55444C6.13094 8.35577 6.36684 8.19821 6.62647 8.09079C6.8861 7.98338 7.16436 7.9282 7.44534 7.92843H8.59217C9.14202 7.92813 9.66928 7.70964 10.0582 7.32095C10.4471 6.93225 10.6659 6.40512 10.6665 5.85527C10.6665 3.66718 8.60617 1.8361 5.99984 1.8361C4.79559 1.835 3.63754 2.29948 2.76781 3.13241C1.89808 3.96535 1.38401 5.10226 1.33309 6.30543C1.28216 7.5086 1.69833 8.68488 2.49457 9.58833C3.29081 10.4918 4.40547 11.0524 5.6055 11.1531C5.41019 10.8248 5.30682 10.4501 5.30625 10.0681V10.0675ZM3.37484 6.50277C3.14277 6.50277 2.92021 6.41058 2.75612 6.24649C2.59202 6.08239 2.49984 5.85983 2.49984 5.62777C2.49984 5.3957 2.59202 5.17314 2.75612 5.00905C2.92021 4.84495 3.14277 4.75277 3.37484 4.75277C3.6069 4.75277 3.82946 4.84495 3.99356 5.00905C4.15765 5.17314 4.24984 5.3957 4.24984 5.62777C4.24984 5.85983 4.15765 6.08239 3.99356 6.24649C3.82946 6.41058 3.6069 6.50277 3.37484 6.50277ZM8.62484 6.50277C8.39277 6.50277 8.17021 6.41058 8.00612 6.24649C7.84202 6.08239 7.74984 5.85983 7.74984 5.62777C7.74984 5.3957 7.84202 5.17314 8.00612 5.00905C8.17021 4.84495 8.39277 4.75277 8.62484 4.75277C8.8569 4.75277 9.07946 4.84495 9.24356 5.00905C9.40765 5.17314 9.49984 5.3957 9.49984 5.62777C9.49984 5.85983 9.40765 6.08239 9.24356 6.24649C9.07946 6.41058 8.8569 6.50277 8.62484 6.50277ZM5.99984 4.75277C5.76777 4.75277 5.54521 4.66058 5.38112 4.49649C5.21702 4.33239 5.12484 4.10983 5.12484 3.87777C5.12484 3.6457 5.21702 3.42314 5.38112 3.25905C5.54521 3.09495 5.76777 3.00277 5.99984 3.00277C6.2319 3.00277 6.45446 3.09495 6.61856 3.25905C6.78265 3.42314 6.87484 3.6457 6.87484 3.87777C6.87484 4.10983 6.78265 4.33239 6.61856 4.49649C6.45446 4.66058 6.2319 4.75277 5.99984 4.75277Z" fill="#434343"/>
</svg>