<svg width="13" height="13" viewBox="0 0 13 13" fill="none" xmlns="http://www.w3.org/2000/svg">
<path d="M3.18225 7.75L0.583496 9.79167V0.750005C0.583496 0.595295 0.644954 0.446922 0.75435 0.337526C0.863747 0.22813 1.01212 0.166672 1.16683 0.166672H9.91683C10.0715 0.166672 10.2199 0.22813 10.3293 0.337526C10.4387 0.446922 10.5002 0.595295 10.5002 0.750005V7.75H3.18225ZM2.77858 6.58334H9.3335V1.33334H1.75016V7.39125L2.77858 6.58334ZM4.66683 8.91667H10.6384L11.6668 9.72459V3.66667H12.2502C12.4049 3.66667 12.5532 3.72813 12.6626 3.83753C12.772 3.94692 12.8335 4.0953 12.8335 4.25V12.125L10.2347 10.0833H5.25016C5.09545 10.0833 4.94708 10.0219 4.83768 9.91248C4.72829 9.80309 4.66683 9.65471 4.66683 9.5V8.91667Z" fill="#595959"/>
</svg>
