<svg width="18" height="20" viewBox="0 0 18 20" fill="none" xmlns="http://www.w3.org/2000/svg">
<path d="M3 6.66669H15V17.5C15 17.721 14.921 17.933 14.7803 18.0893C14.6397 18.2456 14.4489 18.3334 14.25 18.3334H3.75C3.55109 18.3334 3.36032 18.2456 3.21967 18.0893C3.07902 17.933 3 17.721 3 17.5V6.66669ZM4.5 8.33335V16.6667H13.5V8.33335H4.5ZM6.75 10H8.25V15H6.75V10ZM9.75 10H11.25V15H9.75V10ZM5.25 4.16669V2.50002C5.25 2.27901 5.32902 2.06704 5.46967 1.91076C5.61032 1.75448 5.80109 1.66669 6 1.66669H12C12.1989 1.66669 12.3897 1.75448 12.5303 1.91076C12.671 2.06704 12.75 2.27901 12.75 2.50002V4.16669H16.5V5.83335H1.5V4.16669H5.25ZM6.75 3.33335V4.16669H11.25V3.33335H6.75Z" fill="#FF4D4F"/>
</svg>
