<svg width="11" height="12" viewBox="0 0 36 36" fill="none" xmlns="http://www.w3.org/2000/svg">
<path d="M35.2851 16.9595C33.8726 13.9839 32.1918 11.5571 30.2426 9.67917L28.1984 11.7235C29.8654 13.3165 31.3174 15.4006 32.573 17.9961C29.2301 24.9149 24.4851 28.2015 18.0002 28.2015C16.0537 28.2015 14.2608 27.9018 12.6215 27.3023L10.4065 29.5173C12.6833 30.5687 15.2145 31.0944 18.0002 31.0944C25.7226 31.0944 31.4842 27.0725 35.2851 19.0287C35.4379 18.7052 35.5171 18.3519 35.5171 17.9941C35.5171 17.6364 35.4379 17.283 35.2851 16.9595V16.9595ZM32.7309 4.07667L31.0181 2.36185C30.9882 2.33196 30.9528 2.30826 30.9138 2.29208C30.8747 2.2759 30.8329 2.26758 30.7907 2.26758C30.7484 2.26758 30.7066 2.2759 30.6676 2.29208C30.6286 2.30826 30.5931 2.33196 30.5633 2.36185L26.1689 6.75417C23.7462 5.51667 21.0233 4.89792 18.0002 4.89792C10.2779 4.89792 4.5163 8.9198 0.715411 16.9635C0.562633 17.2871 0.483398 17.6404 0.483398 17.9981C0.483398 18.3559 0.562633 18.7092 0.715411 19.0327C2.23389 22.231 4.06202 24.7945 6.19979 26.7233L1.94809 30.9738C1.88786 31.0341 1.85402 31.1158 1.85402 31.201C1.85402 31.2862 1.88786 31.368 1.94809 31.4282L3.66331 33.1435C3.72359 33.2037 3.80531 33.2375 3.89052 33.2375C3.97573 33.2375 4.05746 33.2037 4.11773 33.1435L32.7309 4.53149C32.7608 4.50164 32.7845 4.46619 32.8007 4.42717C32.8168 4.38815 32.8252 4.34632 32.8252 4.30408C32.8252 4.26184 32.8168 4.22001 32.8007 4.18099C32.7845 4.14197 32.7608 4.10652 32.7309 4.07667ZM3.42746 17.9961C6.77434 11.0774 11.5194 7.79078 18.0002 7.79078C20.1916 7.79078 22.184 8.16685 23.9917 8.93145L21.1671 11.756C19.8294 11.0423 18.2978 10.7774 16.7981 11.0004C15.2984 11.2235 13.9101 11.9226 12.8381 12.9947C11.766 14.0668 11.0668 15.4551 10.8438 16.9547C10.6208 18.4544 10.8857 19.9861 11.5994 21.3237L8.24769 24.6754C6.39264 23.0381 4.79354 20.8199 3.42746 17.9961ZM13.3395 17.9961C13.3402 17.2876 13.508 16.5893 13.8293 15.9579C14.1506 15.3264 14.6164 14.7797 15.1887 14.362C15.761 13.9444 16.4237 13.6676 17.1231 13.5542C17.8224 13.4409 18.5387 13.494 19.2136 13.7095L13.5529 19.3702C13.411 18.926 13.339 18.4625 13.3395 17.9961V17.9961Z" fill="black" fill-opacity="0.85"/>
<path d="M17.8402 22.5028C17.7012 22.5028 17.5642 22.4964 17.4284 22.4839L15.3061 24.6062C16.5826 25.095 17.9733 25.2036 19.3101 24.9189C20.647 24.6342 21.8727 23.9684 22.8392 23.0019C23.8057 22.0354 24.4716 20.8096 24.7563 19.4727C25.041 18.1359 24.9324 16.7452 24.4435 15.4688L22.3213 17.591C22.3338 17.7268 22.3402 17.8638 22.3402 18.0028C22.3405 18.5938 22.2243 19.1792 21.9983 19.7253C21.7723 20.2714 21.4408 20.7676 21.0229 21.1855C20.6049 21.6034 20.1087 21.9349 19.5626 22.1609C19.0165 22.387 18.4312 22.5031 17.8402 22.5028Z" fill="black" fill-opacity="0.85"/>
</svg>
