<svg width="11" height="12" viewBox="0 0 36 28" fill="none" xmlns="http://www.w3.org/2000/svg">
<path d="M35.285 12.9659C31.4761 4.94224 25.7185 0.904297 18.0002 0.904297C10.2779 0.904297 4.52433 4.94224 0.715403 12.9699C0.562626 13.2934 0.483391 13.6468 0.483391 14.0045C0.483391 14.3623 0.562626 14.7156 0.715403 15.0391C4.52433 23.0628 10.2819 27.1007 18.0002 27.1007C25.7225 27.1007 31.4761 23.0628 35.285 15.0351C35.5944 14.3842 35.5944 13.6289 35.285 12.9659ZM18.0002 24.2079C11.5194 24.2079 6.77433 20.9213 3.42746 14.0025C6.77433 7.08376 11.5194 3.79715 18.0002 3.79715C24.481 3.79715 29.2261 7.08376 32.573 14.0025C29.2301 20.9213 24.485 24.2079 18.0002 24.2079ZM17.8395 6.93108C13.9342 6.93108 10.7681 10.0972 10.7681 14.0025C10.7681 17.9079 13.9342 21.0739 17.8395 21.0739C21.7449 21.0739 24.9109 17.9079 24.9109 14.0025C24.9109 10.0972 21.7449 6.93108 17.8395 6.93108ZM17.8395 18.5025C15.3525 18.5025 13.3395 16.4896 13.3395 14.0025C13.3395 11.5155 15.3525 9.50251 17.8395 9.50251C20.3266 9.50251 22.3395 11.5155 22.3395 14.0025C22.3395 16.4896 20.3266 18.5025 17.8395 18.5025Z" fill="black" fill-opacity="0.85"/>
</svg>
