<svg
            width="60"
            height="60"
            viewBox="0 0 60 60"
            fill="none"
            xmlns="http://www.w3.org/2000/svg">
            <rect opacity="0.1" width="60" height="60" rx="30" fill="#605BFF" />
            <path
              d="M28 20V22H30V20H38.007C38.555 20 39 20.444 39 20.992V39.008C38.9979 39.2706 38.8926 39.5219 38.7068 39.7075C38.521 39.8931 38.2696 39.9982 38.007 40H21.993C21.7298 40 21.4774 39.8955 21.2912 39.7095C21.105 39.5235 21.0003 39.2712 21 39.008V20.992C21.0021 20.7294 21.1074 20.4781 21.2932 20.2925C21.479 20.1069 21.7304 20.0018 21.993 20H28ZM30 22V24H32V22H30ZM28 24V26H30V24H28ZM30 26V28H32V26H30ZM28 28V30H30V28H28ZM30 30V32H28V35H32V30H30Z"
              fill="#9254DE"
            />
          </svg>