<svg
              width="60"
              height="60"
              viewBox="0 0 60 60"
              fill="none"
              xmlns="http://www.w3.org/2000/svg">
              <rect opacity="0.1" width="60" height="60" rx="30" fill="#5B93FF" />
              <path
                d="M39 27V38.993C39.0009 39.1243 38.976 39.2545 38.9266 39.3762C38.8772 39.4979 38.8043 39.6087 38.7121 39.7022C38.6199 39.7957 38.5101 39.8701 38.3892 39.9212C38.2682 39.9723 38.1383 39.9991 38.007 40H21.993C21.7298 40 21.4774 39.8955 21.2912 39.7095C21.105 39.5235 21.0003 39.2712 21 39.008V20.992C21 20.455 21.447 20 21.998 20H32V26C32 26.2652 32.1054 26.5196 32.2929 26.7071C32.4804 26.8946 32.7348 27 33 27H39ZM39 25H34V20.003L39 25Z"
                fill="#40A9FF"
              />
            </svg>