<svg
              width="60"
              height="60"
              viewBox="0 0 60 60"
              fill="none"
              xmlns="http://www.w3.org/2000/svg">
              <rect opacity="0.2" width="60" height="60" rx="30" fill="#FFD66B" />
              <path
                d="M23 29.1L25 27.1L30.5 32.6L34 29.1L37 32.1V23H23V29.1ZM22 21H38C38.2652 21 38.5196 21.1054 38.7071 21.2929C38.8946 21.4804 39 21.7348 39 22V38C39 38.2652 38.8946 38.5196 38.7071 38.7071C38.5196 38.8946 38.2652 39 38 39H22C21.7348 39 21.4804 38.8946 21.2929 38.7071C21.1054 38.5196 21 38.2652 21 38V22C21 21.7348 21.1054 21.4804 21.2929 21.2929C21.4804 21.1054 21.7348 21 22 21V21ZM33.5 28C33.1022 28 32.7206 27.842 32.4393 27.5607C32.158 27.2794 32 26.8978 32 26.5C32 26.1022 32.158 25.7206 32.4393 25.4393C32.7206 25.158 33.1022 25 33.5 25C33.8978 25 34.2794 25.158 34.5607 25.4393C34.842 25.7206 35 26.1022 35 26.5C35 26.8978 34.842 27.2794 34.5607 27.5607C34.2794 27.842 33.8978 28 33.5 28V28Z"
                fill="#FFA940"
              />
            </svg>