<svg
            width="60"
            height="60"
            viewBox="0 0 60 60"
            fill="none"
            xmlns="http://www.w3.org/2000/svg">
            <rect opacity="0.1" width="60" height="60" rx="30" fill="#FF8F6B" />
            <path
              d="M21 21.993C21 21.445 21.445 21 21.993 21H38.007C38.555 21 39 21.445 39 21.993V38.007C38.9997 38.2703 38.895 38.5227 38.7089 38.7089C38.5227 38.895 38.2703 38.9997 38.007 39H21.993C21.7297 38.9997 21.4773 38.895 21.2911 38.7089C21.105 38.5227 21.0003 38.2703 21 38.007V21.993ZM28.622 26.415C28.5618 26.3748 28.4919 26.3518 28.4196 26.3482C28.3473 26.3447 28.2755 26.3608 28.2116 26.3949C28.1478 26.4289 28.0944 26.4797 28.0572 26.5417C28.0199 26.6037 28.0001 26.6747 28 26.747V33.253C28.0001 33.3253 28.0199 33.3963 28.0572 33.4583C28.0944 33.5203 28.1478 33.5711 28.2116 33.6051C28.2755 33.6392 28.3473 33.6553 28.4196 33.6518C28.4919 33.6482 28.5618 33.6252 28.622 33.585L33.501 30.333C33.5559 30.2965 33.6009 30.247 33.632 30.1889C33.6631 30.1308 33.6794 30.0659 33.6794 30C33.6794 29.9341 33.6631 29.8692 33.632 29.8111C33.6009 29.753 33.5559 29.7035 33.501 29.667L28.621 26.415H28.622Z"
              fill="#FF7875"
            />
          </svg>