<svg width="12" height="12" viewBox="0 0 12 12" fill="none" xmlns="http://www.w3.org/2000/svg">
<path d="M1.33333 5.40003L2.66667 4.0667L6.33333 7.73336L8.66667 5.40003L10.6667 7.40003V1.33336H1.33333V5.40003ZM0.666667 3.05176e-05H11.3333C11.5101 3.05176e-05 11.6797 0.0702684 11.8047 0.195293C11.9298 0.320317 12 0.489886 12 0.666697V11.3334C12 11.5102 11.9298 11.6797 11.8047 11.8048C11.6797 11.9298 11.5101 12 11.3333 12H0.666667C0.489856 12 0.320286 11.9298 0.195262 11.8048C0.0702379 11.6797 0 11.5102 0 11.3334V0.666697C0 0.489886 0.0702379 0.320317 0.195262 0.195293C0.320286 0.0702684 0.489856 3.05176e-05 0.666667 3.05176e-05ZM8.33333 4.6667C8.06812 4.6667 7.81376 4.56134 7.62623 4.3738C7.43869 4.18627 7.33333 3.93191 7.33333 3.6667C7.33333 3.40148 7.43869 3.14713 7.62623 2.95959C7.81376 2.77205 8.06812 2.6667 8.33333 2.6667C8.59855 2.6667 8.8529 2.77205 9.04044 2.95959C9.22798 3.14713 9.33333 3.40148 9.33333 3.6667C9.33333 3.93191 9.22798 4.18627 9.04044 4.3738C8.8529 4.56134 8.59855 4.6667 8.33333 4.6667Z" fill="#FA8C16"/>
</svg>
