<svg width="12" height="12" viewBox="0 0 12 12" fill="none" xmlns="http://www.w3.org/2000/svg">
<path d="M0 0.662061C0 0.296728 0.296667 6.10352e-05 0.662 6.10352e-05H11.338C11.7033 6.10352e-05 12 0.296728 12 0.662061V11.3381C11.9998 11.5136 11.93 11.6819 11.8059 11.806C11.6818 11.9301 11.5135 11.9999 11.338 12.0001H0.662C0.486481 11.9999 0.318201 11.9301 0.19409 11.806C0.0699794 11.6819 0.00017649 11.5136 0 11.3381V0.662061ZM5.08133 3.61006C5.04121 3.58329 4.99458 3.56791 4.9464 3.56554C4.89823 3.56318 4.85032 3.57392 4.80776 3.59664C4.76521 3.61935 4.72962 3.65317 4.70477 3.69452C4.67993 3.73586 4.66676 3.78316 4.66667 3.83139V8.16873C4.66676 8.21696 4.67993 8.26427 4.70477 8.30561C4.72962 8.34695 4.76521 8.38078 4.80776 8.40349C4.85032 8.4262 4.89823 8.43694 4.9464 8.43458C4.99458 8.43222 5.04121 8.41683 5.08133 8.39006L8.334 6.22206C8.37058 6.19772 8.40057 6.16472 8.42132 6.12599C8.44207 6.08726 8.45293 6.044 8.45293 6.00006C8.45293 5.95612 8.44207 5.91287 8.42132 5.87414C8.40057 5.83541 8.37058 5.8024 8.334 5.77806L5.08067 3.61006H5.08133Z" fill="#FF7875"/>
</svg>
