<svg width="12" height="14" viewBox="0 0 12 14" fill="none" xmlns="http://www.w3.org/2000/svg">
<path d="M4.66667 0.333426V1.66676H6V0.333426H11.338C11.7033 0.333426 12 0.629426 12 0.994759V13.0054C11.9986 13.1805 11.9284 13.348 11.8045 13.4718C11.6807 13.5955 11.5131 13.6655 11.338 13.6668H0.662C0.486542 13.6668 0.318261 13.5971 0.194131 13.4731C0.070001 13.3491 0.000176695 13.1809 0 13.0054V0.994759C0.00139643 0.819679 0.071612 0.652176 0.195478 0.528434C0.319345 0.404692 0.486919 0.334646 0.662 0.333426H4.66667ZM6 1.66676V3.00009H7.33333V1.66676H6ZM4.66667 3.00009V4.33343H6V3.00009H4.66667ZM6 4.33343V5.66676H7.33333V4.33343H6ZM4.66667 5.66676V7.00009H6V5.66676H4.66667ZM6 7.00009V8.33343H4.66667V10.3334H7.33333V7.00009H6Z" fill="#9254DE"/>
</svg>
