<svg width="12" height="14" viewBox="0 0 12 14" fill="none" xmlns="http://www.w3.org/2000/svg">
<path d="M12 5.00001V12.9953C12.0006 13.0829 11.984 13.1697 11.951 13.2508C11.9181 13.3319 11.8695 13.4058 11.808 13.4681C11.7466 13.5305 11.6734 13.5801 11.5928 13.6141C11.5121 13.6482 11.4255 13.6661 11.338 13.6667H0.662C0.486542 13.6667 0.318261 13.597 0.194131 13.473C0.070001 13.349 0.000176695 13.1808 0 13.0053V0.994677C0 0.636677 0.298 0.333344 0.665333 0.333344H7.33333V4.33334C7.33333 4.51015 7.40357 4.67972 7.52859 4.80475C7.65362 4.92977 7.82319 5.00001 8 5.00001H12ZM12 3.66668H8.66667V0.335344L12 3.66668Z" fill="#40A9FF"/>
</svg>
