<svg width="66" height="75" viewBox="0 0 66 75" fill="none" xmlns="http://www.w3.org/2000/svg">
<path fill-rule="evenodd" clip-rule="evenodd" d="M27.3675 -1.28063C35.2274 -11.0136 52.0195 -8.66159 63.8786 -4.53361C74.2768 -0.914121 78.0048 11.3708 85.8858 19.0888C92.1975 25.27 100.765 28.5424 105.36 36.0894C110.957 45.2835 115.911 55.5478 114.563 66.1958C113.076 77.9378 107.746 90.1503 97.728 96.3805C87.885 102.502 75.3207 96.6097 63.7714 97.7844C50.0902 99.176 36.5611 109.583 24.0006 103.879C11.1118 98.0269 -0.133634 83.3977 1.0596 69.3083C2.28642 54.8223 24.5172 51.5313 29.5858 37.9313C34.2607 25.3876 18.9696 9.1186 27.3675 -1.28063Z" fill="#F48400"/>
</svg>
