<svg width="210" height="101" viewBox="0 0 210 101" fill="none" xmlns="http://www.w3.org/2000/svg">
<rect width="210" height="75" rx="10" fill="url(#paint0_linear_169_10257)"/>
<mask id="mask0_169_10257" style="mask-type:alpha" maskUnits="userSpaceOnUse" x="0" y="0" width="210" height="75">
<rect width="210" height="75" rx="10" fill="#4F46BA"/>
</mask>
<g mask="url(#mask0_169_10257)">
<path d="M16 41.1979V27.5209L23.8491 22.5566L33.6604 28.7366V52.4434L16 41.1979Z" fill="white"/>
<path d="M52 41.2613V27.5377L43.8491 22.5566L33.6604 28.8167V52.4434L52 41.2613Z" fill="white"/>
<path opacity="0.6" d="M69.274 32H75.56V30.264H71.346V21.64H69.274V32ZM75.8874 32H77.9874L79.4714 26.61C79.7794 25.532 80.0734 24.342 80.3534 23.222H80.4094C80.7034 24.328 80.9974 25.532 81.3054 26.61L82.7894 32H84.9594L81.6414 21.64H79.2054L75.8874 32ZM77.9454 29.34H82.8734V27.744H77.9454V29.34ZM85.3907 32H92.8247V30.264H87.9387L92.7687 22.886V21.64H85.8527V23.362H90.2207L85.3907 30.754V32ZM93.2233 32H95.3233L96.8073 26.61C97.1153 25.532 97.4093 24.342 97.6893 23.222H97.7453C98.0393 24.328 98.3333 25.532 98.6413 26.61L100.125 32H102.295L98.9773 21.64H96.5413L93.2233 32ZM95.2813 29.34H100.209V27.744H95.2813V29.34ZM103.522 32H106.476C109.528 32 111.474 30.264 111.474 26.778C111.474 23.278 109.528 21.64 106.364 21.64H103.522V32ZM105.594 30.334V23.292H106.224C108.17 23.292 109.36 24.258 109.36 26.778C109.36 29.298 108.17 30.334 106.224 30.334H105.594ZM111.954 32H114.054L115.538 26.61C115.846 25.532 116.14 24.342 116.42 23.222H116.476C116.77 24.328 117.064 25.532 117.372 26.61L118.856 32H121.026L117.708 21.64H115.272L111.954 32ZM114.012 29.34H118.94V27.744H114.012V29.34Z" fill="white"/>
<path d="M69.248 54H76.768V51.696H74.624V42.08H72.528C71.696 42.608 70.864 42.928 69.584 43.168V44.928H71.776V51.696H69.248V54ZM82.934 54.224C85.062 54.224 86.854 52.704 86.854 50.176C86.854 47.6 85.35 46.448 83.366 46.448C82.646 46.448 81.542 46.928 80.966 47.776L81.094 49.616C81.574 48.752 82.23 48.448 82.822 48.448C83.606 48.448 84.262 48.88 84.262 50.176C84.262 51.536 83.622 52.096 82.87 52.096C81.974 52.096 81.078 51.248 81.078 48.144C81.078 45.152 82.102 44.144 83.414 44.144C84.07 44.144 84.806 44.56 85.19 44.976L86.694 43.296C85.942 42.528 84.79 41.872 83.222 41.872C80.758 41.872 78.486 43.84 78.486 48.144C78.486 52.48 80.694 54.224 82.934 54.224ZM88.172 54H96.428V51.6H94.252C93.708 51.6 92.892 51.68 92.3 51.76C94.124 49.92 95.884 47.664 95.884 45.616C95.884 43.344 94.284 41.872 91.98 41.872C90.284 41.872 89.196 42.464 88.028 43.712L89.58 45.248C90.156 44.64 90.78 44.096 91.596 44.096C92.556 44.096 93.148 44.688 93.148 45.776C93.148 47.504 91.148 49.664 88.172 52.368V54ZM98.674 57.632C100.898 56.96 102.082 55.408 102.082 53.344C102.082 51.68 101.394 50.688 100.146 50.688C99.154 50.688 98.37 51.328 98.37 52.288C98.37 53.312 99.186 53.888 100.066 53.888C100.45 53.888 100.802 53.776 101.074 53.536L100.178 51.968L100.21 53.84C100.226 54.768 99.49 55.632 98.098 56.112L98.674 57.632ZM107.707 54.224C110.203 54.224 111.867 52.832 111.867 50.992C111.867 49.36 111.003 48.368 109.867 47.776V47.696C110.683 47.136 111.371 46.192 111.371 45.056C111.371 43.12 109.947 41.872 107.803 41.872C105.611 41.872 104.027 43.104 104.027 45.088C104.027 46.352 104.651 47.264 105.579 47.952V48.032C104.475 48.608 103.627 49.552 103.627 51.04C103.627 52.928 105.371 54.224 107.707 54.224ZM108.427 47.008C107.259 46.544 106.523 46.032 106.523 45.088C106.523 44.24 107.083 43.84 107.739 43.84C108.571 43.84 109.067 44.384 109.067 45.248C109.067 45.856 108.875 46.464 108.427 47.008ZM107.771 52.24C106.843 52.24 106.059 51.68 106.059 50.704C106.059 49.952 106.379 49.232 106.859 48.768C108.315 49.392 109.227 49.84 109.227 50.88C109.227 51.824 108.603 52.24 107.771 52.24ZM115.473 54H118.337C118.545 49.344 118.833 47.088 121.585 43.824V42.08H113.425V44.464H118.545C116.305 47.568 115.697 50.08 115.473 54ZM126.823 54.224C129.191 54.224 131.223 52.976 131.223 50.752C131.223 49.216 130.247 48.256 128.935 47.856V47.776C130.199 47.264 130.839 46.336 130.839 45.152C130.839 43.024 129.223 41.872 126.759 41.872C125.351 41.872 124.167 42.416 123.063 43.344L124.503 45.088C125.223 44.448 125.831 44.096 126.631 44.096C127.511 44.096 127.991 44.544 127.991 45.36C127.991 46.304 127.351 46.912 125.319 46.912V48.928C127.815 48.928 128.359 49.536 128.359 50.56C128.359 51.456 127.639 51.92 126.535 51.92C125.607 51.92 124.775 51.44 124.055 50.768L122.743 52.56C123.607 53.568 124.935 54.224 126.823 54.224Z" fill="white"/>
<path fill-rule="evenodd" clip-rule="evenodd" d="M171.368 -1.28063C179.227 -11.0136 196.02 -8.66159 207.879 -4.53361C218.277 -0.914121 222.005 11.3708 229.886 19.0888C236.197 25.27 244.765 28.5424 249.36 36.0894C254.957 45.2835 259.911 55.5478 258.563 66.1958C257.076 77.9378 251.746 90.1503 241.728 96.3805C231.885 102.502 219.321 96.6097 207.771 97.7844C194.09 99.176 180.561 109.583 168.001 103.879C155.112 98.0269 143.866 83.3977 145.06 69.3083C146.286 54.8223 168.517 51.5313 173.586 37.9313C178.261 25.3876 162.97 9.1186 171.368 -1.28063Z" fill="#F92D9A"/>
<path opacity="0.6" fill-rule="evenodd" clip-rule="evenodd" d="M161.723 -5.28097C169.583 -15.0139 186.375 -12.6619 198.234 -8.53394C208.632 -4.91446 212.36 7.37047 220.241 15.0885C226.553 21.2696 235.121 24.542 239.715 32.0891C245.312 41.2831 250.266 51.5475 248.918 62.1955C247.432 73.9375 242.101 86.15 232.084 92.3802C222.241 98.5018 209.676 92.6094 198.127 93.7841C184.446 95.1756 170.917 105.583 158.356 99.8791C145.467 94.0265 134.222 79.3973 135.415 65.3079C136.642 50.822 158.873 47.5309 163.941 33.931C168.616 21.3873 153.325 5.11827 161.723 -5.28097Z" fill="#F48400"/>
</g>
<path d="M70.632 97.196C70.982 97.196 71.178 97.14 71.36 97.084L71.192 96.104C71.038 96.132 70.982 96.132 70.926 96.132C70.73 96.132 70.562 95.978 70.562 95.572V85.87H69.288V95.488C69.288 96.58 69.666 97.196 70.632 97.196ZM75.0165 97.196C75.9545 97.196 76.8085 96.706 77.5225 96.104H77.5785L77.6905 97H78.7405V92.338C78.7405 90.448 77.9565 89.216 76.0945 89.216C74.8765 89.216 73.8125 89.748 73.1125 90.196L73.6165 91.092C74.2045 90.686 75.0025 90.266 75.8985 90.266C77.1445 90.266 77.4525 91.204 77.4525 92.184C74.2185 92.548 72.7905 93.374 72.7905 95.026C72.7905 96.398 73.7425 97.196 75.0165 97.196ZM75.3665 96.16C74.6245 96.16 74.0365 95.81 74.0365 94.942C74.0365 93.962 74.8905 93.332 77.4525 93.038V95.152C76.7245 95.81 76.1085 96.16 75.3665 96.16ZM80.3432 97H86.1112V95.964H81.9672L85.9712 90.084V89.398H80.7912V90.434H84.3612L80.3432 96.328V97ZM89.1396 97.196C90.0776 97.196 90.9316 96.706 91.6456 96.104H91.7016L91.8136 97H92.8636V92.338C92.8636 90.448 92.0796 89.216 90.2176 89.216C88.9996 89.216 87.9356 89.748 87.2356 90.196L87.7396 91.092C88.3276 90.686 89.1256 90.266 90.0216 90.266C91.2676 90.266 91.5756 91.204 91.5756 92.184C88.3416 92.548 86.9136 93.374 86.9136 95.026C86.9136 96.398 87.8656 97.196 89.1396 97.196ZM89.4896 96.16C88.7476 96.16 88.1596 95.81 88.1596 94.942C88.1596 93.962 89.0136 93.332 91.5756 93.038V95.152C90.8476 95.81 90.2316 96.16 89.4896 96.16ZM97.8542 97.196C98.7782 97.196 99.5762 96.706 100.178 96.104H100.206L100.318 97H101.368V85.87H100.094V88.782L100.15 90.098C99.4922 89.538 98.9042 89.216 98.0222 89.216C96.2862 89.216 94.7182 90.742 94.7182 93.22C94.7182 95.754 95.9502 97.196 97.8542 97.196ZM98.1342 96.118C96.8042 96.118 96.0482 95.026 96.0482 93.206C96.0482 91.47 97.0142 90.28 98.2322 90.28C98.8622 90.28 99.4502 90.504 100.094 91.092V95.082C99.4642 95.768 98.8482 96.118 98.1342 96.118ZM105.71 97.196C106.648 97.196 107.502 96.706 108.216 96.104H108.272L108.384 97H109.434V92.338C109.434 90.448 108.65 89.216 106.788 89.216C105.57 89.216 104.506 89.748 103.806 90.196L104.31 91.092C104.898 90.686 105.696 90.266 106.592 90.266C107.838 90.266 108.146 91.204 108.146 92.184C104.912 92.548 103.484 93.374 103.484 95.026C103.484 96.398 104.436 97.196 105.71 97.196ZM106.06 96.16C105.318 96.16 104.73 95.81 104.73 94.942C104.73 93.962 105.584 93.332 108.146 93.038V95.152C107.418 95.81 106.802 96.16 106.06 96.16ZM112.493 97.196C113.011 97.196 113.431 96.79 113.431 96.216C113.431 95.628 113.011 95.236 112.493 95.236C111.989 95.236 111.583 95.628 111.583 96.216C111.583 96.79 111.989 97.196 112.493 97.196ZM118.508 97.196C119.418 97.196 120.3 96.832 120.972 96.23L120.426 95.376C119.95 95.796 119.32 96.132 118.634 96.132C117.234 96.132 116.268 94.956 116.268 93.22C116.268 91.456 117.276 90.28 118.676 90.28C119.264 90.28 119.74 90.546 120.188 90.952L120.832 90.112C120.3 89.622 119.6 89.216 118.606 89.216C116.66 89.216 114.952 90.672 114.952 93.22C114.952 95.726 116.492 97.196 118.508 97.196ZM125.248 97.196C127.11 97.196 128.762 95.726 128.762 93.22C128.762 90.672 127.11 89.216 125.248 89.216C123.372 89.216 121.72 90.672 121.72 93.22C121.72 95.726 123.372 97.196 125.248 97.196ZM125.248 96.132C123.918 96.132 123.036 94.956 123.036 93.22C123.036 91.456 123.918 90.28 125.248 90.28C126.564 90.28 127.446 91.456 127.446 93.22C127.446 94.956 126.564 96.132 125.248 96.132ZM130.784 97H132.058V91.484C132.744 90.714 133.388 90.322 133.962 90.322C134.942 90.322 135.39 90.924 135.39 92.352V97H136.664V91.484C137.378 90.714 137.98 90.322 138.568 90.322C139.548 90.322 139.996 90.924 139.996 92.352V97H141.27V92.184C141.27 90.252 140.514 89.216 138.96 89.216C138.036 89.216 137.238 89.818 136.44 90.658C136.146 89.762 135.516 89.216 134.354 89.216C133.444 89.216 132.646 89.79 131.988 90.504H131.946L131.82 89.398H130.784V97Z" fill="#BFBFBF"/>
<defs>
<linearGradient id="paint0_linear_169_10257" x1="105" y1="0" x2="105" y2="75" gradientUnits="userSpaceOnUse">
<stop stop-color="#0100BD"/>
<stop offset="1" stop-color="#0E1273"/>
</linearGradient>
</defs>
</svg>
