<svg width="14" height="16" viewBox="0 0 14 16" fill="none" xmlns="http://www.w3.org/2000/svg">
<path d="M12.7163 7.14806H11.5021V3.14806C11.5021 1.88556 10.4788 0.86235 9.21634 0.86235H4.78777C3.52527 0.86235 2.50205 1.88556 2.50205 3.14806V7.14806H1.28777C0.971696 7.14806 0.716339 7.40342 0.716339 7.71949V14.5766C0.716339 14.8927 0.971696 15.1481 1.28777 15.1481H12.7163C13.0324 15.1481 13.2878 14.8927 13.2878 14.5766V7.71949C13.2878 7.40342 13.0324 7.14806 12.7163 7.14806ZM3.78777 3.14806C3.78777 2.59628 4.23598 2.14806 4.78777 2.14806H9.21634C9.76813 2.14806 10.2163 2.59628 10.2163 3.14806V7.14806H3.78777V3.14806ZM12.0021 13.8623H2.00205V8.43378H12.0021V13.8623ZM6.50205 11.3802V12.3266C6.50205 12.4052 6.56634 12.4695 6.64491 12.4695H7.3592C7.43777 12.4695 7.50205 12.4052 7.50205 12.3266V11.3802C7.64946 11.2744 7.75948 11.1245 7.81629 10.9522C7.87309 10.7798 7.87375 10.5939 7.81816 10.4212C7.76257 10.2484 7.65361 10.0978 7.50695 9.99091C7.3603 9.88404 7.18352 9.82647 7.00205 9.82647C6.82059 9.82647 6.64381 9.88404 6.49716 9.99091C6.3505 10.0978 6.24154 10.2484 6.18595 10.4212C6.13036 10.5939 6.13102 10.7798 6.18782 10.9522C6.24463 11.1245 6.35465 11.2744 6.50205 11.3802Z" fill="#1890FF"/>
</svg>
