<svg width="14" height="66" viewBox="0 0 14 66" fill="none" xmlns="http://www.w3.org/2000/svg">
<path d="M0 8L14 13.8182V50.1818L0 56V8Z" fill="white"/>
<path d="M9.77135 32.6853L4.13635 28.284C4.12162 28.2724 4.10393 28.2652 4.08529 28.2632C4.06666 28.2613 4.04784 28.2646 4.031 28.2728C4.01416 28.281 3.99999 28.2938 3.9901 28.3097C3.98021 28.3257 3.97501 28.344 3.9751 28.3628V29.329C3.9751 29.3903 4.00385 29.449 4.05135 29.4865L8.55135 33.0003L4.05135 36.514C4.0026 36.5515 3.9751 36.6103 3.9751 36.6715V37.6378C3.9751 37.7215 4.07135 37.7678 4.13635 37.7165L9.77135 33.3153C9.81924 33.2779 9.85799 33.2301 9.88464 33.1755C9.91128 33.121 9.92514 33.061 9.92514 33.0003C9.92514 32.9395 9.91128 32.8796 9.88464 32.825C9.85799 32.7704 9.81924 32.7226 9.77135 32.6853Z" fill="black" fill-opacity="0.45"/>
</svg>
