<svg width="16" height="16" viewBox="0 0 16 16" fill="none" xmlns="http://www.w3.org/2000/svg">
<path d="M3.84274 5.33334L3.64608 4.84667C3.61327 4.76547 3.59678 4.67861 3.59755 4.59103C3.59832 4.50346 3.61634 4.4169 3.65058 4.33629C3.68481 4.25568 3.7346 4.18261 3.79708 4.12125C3.85957 4.05989 3.93353 4.01144 4.01474 3.97867L10.1961 1.48134C10.3599 1.41525 10.5433 1.41688 10.7059 1.48588C10.8685 1.55488 10.9971 1.6856 11.0634 1.84934L14.8101 11.1213C14.8429 11.2025 14.8594 11.2894 14.8586 11.377C14.8578 11.4645 14.8398 11.5511 14.8056 11.6317C14.7713 11.7123 14.7216 11.7854 14.6591 11.8468C14.5966 11.9081 14.5226 11.9566 14.4414 11.9893L8.26008 14.4867C8.17888 14.5195 8.09201 14.536 8.00444 14.5352C7.91687 14.5344 7.8303 14.5164 7.7497 14.4822C7.66909 14.4479 7.59602 14.3982 7.53466 14.3357C7.47329 14.2732 7.42485 14.1992 7.39208 14.118L7.33341 13.9733V14H4.66674C4.48993 14 4.32036 13.9298 4.19534 13.8047C4.07032 13.6797 4.00008 13.5101 4.00008 13.3333V13.1533L1.76674 12.2513C1.60284 12.185 1.47199 12.0563 1.40298 11.8936C1.33397 11.7308 1.33244 11.5472 1.39874 11.3833L3.84274 5.33334ZM5.33341 12.6667H6.80608L5.33341 9.022V12.6667ZM4.00008 8.504L2.88474 11.2647L4.00008 11.7387V8.504ZM5.13208 4.96467L8.37874 13.0007L13.3241 11.0027L10.0774 2.96734L5.13208 4.96467ZM7.11741 6.32C6.95342 6.38622 6.76984 6.38458 6.60706 6.31544C6.44428 6.2463 6.31563 6.11533 6.24941 5.95134C6.18319 5.78735 6.18484 5.60377 6.25398 5.44098C6.32311 5.2782 6.45408 5.14955 6.61808 5.08334C6.78207 5.01703 6.96568 5.01859 7.12853 5.08767C7.29137 5.15674 7.42011 5.28768 7.48641 5.45167C7.55271 5.61566 7.55116 5.79928 7.48208 5.96212C7.41301 6.12497 7.28207 6.2537 7.11808 6.32H7.11741Z" fill="white"/>
</svg>
