<svg width="13" height="13" viewBox="0 0 13 13" fill="none" xmlns="http://www.w3.org/2000/svg">
<path d="M5.4165 0.316755C5.609 0.299838 5.80325 0.291672 5.99984 0.291672C9.70459 0.291672 12.7082 3.29526 12.7082 7.00001C12.7082 7.19659 12.7 7.39084 12.6831 7.58334H11.8046C11.5118 10.5309 9.02442 12.8333 5.99984 12.8333C2.77809 12.8333 0.166504 10.2218 0.166504 7.00001C0.166504 3.97542 2.46892 1.48809 5.4165 1.19584V0.316172V0.316755ZM5.4165 7.58334V2.36951C4.23975 2.51924 3.16417 3.11143 2.40836 4.02572C1.65256 4.94 1.27325 6.10778 1.34753 7.29169C1.42181 8.4756 1.94411 9.5868 2.80827 10.3995C3.67243 11.2121 4.8136 11.6652 5.99984 11.6667C7.13653 11.6667 8.23414 11.2518 9.08669 10.5C9.93924 9.74819 10.4881 8.7111 10.6303 7.58334H5.4165ZM11.5112 6.41667C11.3774 5.15545 10.8153 3.97822 9.91844 3.0814C9.02162 2.18458 7.8444 1.6224 6.58317 1.48867V6.41667H11.5112Z" fill="#595959"/>
</svg>
