<svg width="15" height="14" viewBox="0 0 15 14" fill="none" xmlns="http://www.w3.org/2000/svg">
<path d="M6.8335 6.33337V3.66671H8.16683V6.33337H10.8335V7.66671H8.16683V10.3334H6.8335V7.66671H4.16683V6.33337H6.8335ZM7.50016 13.6667C3.81816 13.6667 0.833496 10.682 0.833496 7.00004C0.833496 3.31804 3.81816 0.333374 7.50016 0.333374C11.1822 0.333374 14.1668 3.31804 14.1668 7.00004C14.1668 10.682 11.1822 13.6667 7.50016 13.6667ZM7.50016 12.3334C8.91465 12.3334 10.2712 11.7715 11.2714 10.7713C12.2716 9.77108 12.8335 8.41453 12.8335 7.00004C12.8335 5.58555 12.2716 4.229 11.2714 3.2288C10.2712 2.22861 8.91465 1.66671 7.50016 1.66671C6.08567 1.66671 4.72912 2.22861 3.72893 3.2288C2.72873 4.229 2.16683 5.58555 2.16683 7.00004C2.16683 8.41453 2.72873 9.77108 3.72893 10.7713C4.72912 11.7715 6.08567 12.3334 7.50016 12.3334Z" fill="white"/>
</svg>
