<svg width="12" height="12" viewBox="0 0 12 12" fill="none" xmlns="http://www.w3.org/2000/svg">
<path d="M2.66667 10.6667V6.66667H9.33333V10.6667H10.6667V3.21867L8.78133 1.33333H1.33333V10.6667H2.66667ZM0.666667 0H9.33333L12 2.66667V11.3333C12 11.5101 11.9298 11.6797 11.8047 11.8047C11.6797 11.9298 11.5101 12 11.3333 12H0.666667C0.489856 12 0.320286 11.9298 0.195262 11.8047C0.0702379 11.6797 0 11.5101 0 11.3333V0.666667C0 0.489856 0.0702379 0.320286 0.195262 0.195262C0.320286 0.0702379 0.489856 0 0.666667 0ZM4 8V10.6667H8V8H4Z" fill="white"/>
</svg>
