<svg width="12" height="12" viewBox="0 0 12 12" fill="none" xmlns="http://www.w3.org/2000/svg">
<path d="M8.33317 10.6667V1.33333H1.33317V10.0833C1.33317 10.238 1.39463 10.3864 1.50403 10.4958C1.61342 10.6052 1.76179 10.6667 1.9165 10.6667H8.33317ZM10.0832 11.8333H1.9165C1.45238 11.8333 1.00726 11.649 0.679067 11.3208C0.350878 10.9926 0.166504 10.5475 0.166504 10.0833V0.749997C0.166504 0.595288 0.227962 0.446915 0.337358 0.337518C0.446754 0.228122 0.595128 0.166664 0.749837 0.166664H8.9165C9.07121 0.166664 9.21959 0.228122 9.32898 0.337518C9.43838 0.446915 9.49984 0.595288 9.49984 0.749997V4.83333H11.8332V10.0833C11.8332 10.5475 11.6488 10.9926 11.3206 11.3208C10.9924 11.649 10.5473 11.8333 10.0832 11.8333ZM9.49984 6V10.0833C9.49984 10.238 9.5613 10.3864 9.67069 10.4958C9.78009 10.6052 9.92846 10.6667 10.0832 10.6667C10.2379 10.6667 10.3863 10.6052 10.4957 10.4958C10.605 10.3864 10.6665 10.238 10.6665 10.0833V6H9.49984ZM2.49984 2.5H5.99984V6H2.49984V2.5ZM3.6665 3.66666V4.83333H4.83317V3.66666H3.6665ZM2.49984 6.58333H7.1665V7.75H2.49984V6.58333ZM2.49984 8.33333H7.1665V9.5H2.49984V8.33333Z" fill="#FA8C16"/>
</svg>
