<svg width="14" height="14" viewBox="0 0 14 14" fill="none" xmlns="http://www.w3.org/2000/svg">
<path d="M0.333496 6.99952C0.333496 6.42286 0.406829 5.86419 0.544163 5.33019C0.912473 5.34955 1.27896 5.26669 1.60312 5.09077C1.92728 4.91485 2.19648 4.65271 2.38097 4.33335C2.56545 4.01399 2.65803 3.64983 2.64848 3.28114C2.63893 2.91244 2.52761 2.55357 2.32683 2.24419C3.13279 1.45123 4.12736 0.876519 5.21683 0.574188C5.38416 0.90317 5.63925 1.17943 5.95389 1.3724C6.26852 1.56536 6.63041 1.66749 6.9995 1.66749C7.36859 1.66749 7.73048 1.56536 8.04511 1.3724C8.35974 1.17943 8.61484 0.90317 8.78216 0.574188C9.87163 0.876519 10.8662 1.45123 11.6722 2.24419C11.4712 2.55362 11.3597 2.91263 11.3501 3.2815C11.3404 3.65036 11.433 4.0147 11.6176 4.3342C11.8022 4.65369 12.0716 4.9159 12.396 5.0918C12.7203 5.2677 13.087 5.35043 13.4555 5.33085C13.5928 5.86419 13.6662 6.42286 13.6662 6.99952C13.6662 7.57619 13.5928 8.13486 13.4555 8.66886C13.0871 8.64936 12.7205 8.73213 12.3963 8.908C12.072 9.08387 11.8027 9.34599 11.6182 9.66537C11.4336 9.98476 11.341 10.349 11.3505 10.7177C11.36 11.0865 11.4713 11.4454 11.6722 11.7549C10.8662 12.5478 9.87163 13.1225 8.78216 13.4249C8.61484 13.0959 8.35974 12.8196 8.04511 12.6266C7.73048 12.4337 7.36859 12.3316 6.9995 12.3316C6.63041 12.3316 6.26852 12.4337 5.95389 12.6266C5.63925 12.8196 5.38416 13.0959 5.21683 13.4249C4.12736 13.1225 3.13279 12.5478 2.32683 11.7549C2.52783 11.4454 2.63932 11.0864 2.64894 10.7175C2.65857 10.3487 2.56596 9.98435 2.38137 9.66485C2.19678 9.34535 1.9274 9.08314 1.60303 8.90724C1.27867 8.73135 0.911966 8.64861 0.543496 8.66819C0.406829 8.13552 0.333496 7.57686 0.333496 6.99952ZM3.53616 8.99952C3.95616 9.72686 4.07616 10.5635 3.91216 11.3489C4.18416 11.5422 4.4735 11.7095 4.77683 11.8489C5.38794 11.3014 6.17971 10.999 7.00016 10.9995C7.84016 10.9995 8.6255 11.3135 9.2235 11.8489C9.52683 11.7095 9.81616 11.5422 10.0882 11.3489C9.91979 10.5462 10.0537 9.70957 10.4642 8.99952C10.8739 8.2891 11.5315 7.75496 12.3108 7.49952C12.3417 7.1669 12.3417 6.83214 12.3108 6.49952C11.5313 6.24423 10.8734 5.71007 10.4635 4.99952C10.053 4.28947 9.91912 3.45288 10.0875 2.65019C9.81557 2.4568 9.52608 2.2894 9.22283 2.15019C8.61189 2.69748 7.82039 2.99993 7.00016 2.99952C6.17971 3.00009 5.38794 2.69763 4.77683 2.15019C4.47358 2.2894 4.18409 2.45681 3.91216 2.65019C4.08054 3.45288 3.94665 4.28947 3.53616 4.99952C3.12641 5.70994 2.46882 6.24409 1.6895 6.49952C1.65866 6.83214 1.65866 7.1669 1.6895 7.49952C2.46907 7.75482 3.12692 8.28898 3.53683 8.99952H3.53616ZM7.00016 8.99952C6.46973 8.99952 5.96102 8.78881 5.58595 8.41374C5.21088 8.03866 5.00016 7.52995 5.00016 6.99952C5.00016 6.46909 5.21088 5.96038 5.58595 5.58531C5.96102 5.21024 6.46973 4.99952 7.00016 4.99952C7.5306 4.99952 8.0393 5.21024 8.41438 5.58531C8.78945 5.96038 9.00016 6.46909 9.00016 6.99952C9.00016 7.52995 8.78945 8.03866 8.41438 8.41374C8.0393 8.78881 7.5306 8.99952 7.00016 8.99952ZM7.00016 7.66619C7.17697 7.66619 7.34654 7.59595 7.47157 7.47093C7.59659 7.3459 7.66683 7.17633 7.66683 6.99952C7.66683 6.82271 7.59659 6.65314 7.47157 6.52812C7.34654 6.40309 7.17697 6.33286 7.00016 6.33286C6.82335 6.33286 6.65378 6.40309 6.52876 6.52812C6.40373 6.65314 6.3335 6.82271 6.3335 6.99952C6.3335 7.17633 6.40373 7.3459 6.52876 7.47093C6.65378 7.59595 6.82335 7.66619 7.00016 7.66619Z" fill="black" fill-opacity="0.85"/>
</svg>
