<svg width="62" height="75" viewBox="0 0 62 75" fill="none" xmlns="http://www.w3.org/2000/svg">
<path opacity="0.1" fill-rule="evenodd" clip-rule="evenodd" d="M100.435 -25.1587C112.319 -21.2511 116.061 -4.71315 116.396 7.83935C116.69 18.8456 106.519 26.6792 102.089 36.7813C98.5412 44.8718 98.512 54.0432 93.0789 61.0108C86.46 69.4989 78.6126 77.7643 68.1766 80.2713C56.6683 83.0359 43.3596 82.3711 33.9879 75.2061C24.7794 68.1659 25.8449 54.3294 20.6597 43.943C14.5173 31.6392 -0.00352965 22.6677 0.886604 8.90168C1.8 -5.2242 11.5037 -20.9184 25.1039 -24.7878C39.0868 -28.766 50.031 -9.13787 64.5446 -9.20933C77.931 -9.27525 87.7369 -29.3337 100.435 -25.1587Z" fill="#23657A"/>
</svg>
