<svg width="65" height="75" viewBox="0 0 65 75" fill="none" xmlns="http://www.w3.org/2000/svg">
<path opacity="0.2" fill-rule="evenodd" clip-rule="evenodd" d="M0.5374 3.23155C0.470565 -9.2786 14.9656 -18.0764 26.7625 -22.3786C37.1063 -26.1509 47.7633 -18.9924 58.7492 -17.9979C67.5475 -17.2015 76.2538 -20.085 84.5856 -17.1445C94.7357 -13.5622 105.065 -8.74413 110.755 0.356466C117.029 10.392 120.623 23.2236 116.803 34.3849C113.05 45.3518 99.591 48.7333 91.3875 56.9473C81.6698 66.6775 77.7714 83.295 64.4347 86.8205C50.7494 90.4381 32.7866 86.2178 24.8005 74.5492C16.5896 62.5521 31.7288 45.9436 27.0541 32.2033C22.7426 19.53 0.608809 16.5981 0.5374 3.23155Z" fill="#F9896B"/>
</svg>
