<svg width="75" height="75" viewBox="0 0 75 75" fill="none" xmlns="http://www.w3.org/2000/svg">
<path opacity="0.6" fill-rule="evenodd" clip-rule="evenodd" d="M26.723 -5.28097C34.5829 -15.0139 51.375 -12.6619 63.2341 -8.53394C73.6323 -4.91445 77.3603 7.37047 85.2413 15.0885C91.553 21.2696 100.121 24.542 104.715 32.0891C110.312 41.2831 115.266 51.5475 113.918 62.1955C112.432 73.9375 107.101 86.15 97.0835 92.3802C87.2405 98.5018 74.6762 92.6094 63.1269 93.7841C49.4457 95.1756 35.9166 105.583 23.3561 99.8791C10.4672 94.0265 -0.778165 79.3974 0.415069 65.3079C1.64189 50.822 23.8727 47.5309 28.9412 33.931C33.6162 21.3873 18.325 5.11827 26.723 -5.28097Z" fill="#009CF4"/>
</svg>
