<svg width="129" height="43" viewBox="0 0 129 43" fill="none" xmlns="http://www.w3.org/2000/svg">
<path d="M19.8 6.509C31.86 6.6395 33 8.375 33 21.5L32.991 23.3C32.8605 35.36 31.125 36.5 18 36.5L16.2 36.491C4.713 36.3665 3.1335 34.787 3.009 23.2985L3 21.0365L3.009 19.7015C3.1365 7.92649 4.794 6.5615 17.082 6.5015L19.7985 6.509H19.8ZM12.375 14H11.5005C11.2608 13.9999 11.029 14.0858 10.8473 14.2422C10.6656 14.3985 10.5461 14.6149 10.5105 14.852L10.5 15.0005V20.4995C10.5 21.002 10.8705 21.4175 11.352 21.4895L11.5005 21.5H12.375C13.815 21.4999 15.2002 22.052 16.2453 23.0427C17.2904 24.0333 17.9157 25.387 17.9925 26.825L18 27.125V27.9995C18 28.502 18.3705 28.9175 18.852 28.9895L19.0005 29H24.4995C24.7392 29.0001 24.971 28.9142 25.1527 28.7578C25.3344 28.6015 25.4539 28.3851 25.4895 28.148L25.5 27.9995V27.125C25.4999 23.7111 24.1697 20.4316 21.7915 17.9823C19.4133 15.533 16.1744 14.1067 12.762 14.006L12.375 14Z" fill="white"/>
<path opacity="0.6" d="M56.368 16.196C58.748 16.196 60.162 14.754 60.162 13.06C60.162 11.576 59.336 10.764 58.09 10.246L56.732 9.686C55.85 9.336 55.108 9.056 55.108 8.314C55.108 7.642 55.682 7.236 56.592 7.236C57.446 7.236 58.132 7.544 58.804 8.09L59.84 6.788C59 5.934 57.796 5.458 56.592 5.458C54.506 5.458 53.008 6.76 53.008 8.454C53.008 9.952 54.072 10.806 55.108 11.226L56.494 11.814C57.418 12.206 58.048 12.458 58.048 13.228C58.048 13.942 57.488 14.404 56.41 14.404C55.5 14.404 54.506 13.956 53.778 13.27L52.588 14.698C53.596 15.664 54.968 16.196 56.368 16.196ZM62.0103 16H64.0823V12.318H65.4683C67.6943 12.318 69.4583 11.268 69.4583 8.902C69.4583 6.438 67.6943 5.64 65.4123 5.64H62.0103V16ZM64.0823 10.68V7.292H65.2583C66.6863 7.292 67.4423 7.684 67.4423 8.902C67.4423 10.078 66.7563 10.68 65.3283 10.68H64.0823ZM71.3482 16H77.8582V14.264H73.4202V11.506H77.0462V9.756H73.4202V7.362H77.7042V5.64H71.3482V16ZM84.1755 16.196C85.5195 16.196 86.6255 15.678 87.4795 14.684L86.3875 13.382C85.8415 13.984 85.1415 14.404 84.2595 14.404C82.6075 14.404 81.5575 13.06 81.5575 10.792C81.5575 8.58 82.7335 7.236 84.2875 7.236C85.0855 7.236 85.6735 7.586 86.2055 8.104L87.2975 6.774C86.6255 6.074 85.5755 5.458 84.2595 5.458C81.6275 5.458 79.4435 7.446 79.4435 10.862C79.4435 14.32 81.5575 16.196 84.1755 16.196ZM90.9062 16H92.9782V7.362H95.9042V5.64H87.9802V7.362H90.9062V16ZM97.5982 16H99.6702V12.094H101.196C103.366 12.094 105.088 11.086 105.088 8.776C105.088 6.396 103.366 5.64 101.196 5.64H97.5982V16ZM99.6702 10.456V7.292H101C102.344 7.292 103.072 7.67 103.072 8.776C103.072 9.882 102.344 10.456 101 10.456H99.6702ZM103.226 16H105.536L102.26 10.26L100.818 11.562L103.226 16ZM111.117 16.196C113.651 16.196 115.121 14.782 115.121 11.352V5.64H113.133V11.534C113.133 13.676 112.335 14.404 111.117 14.404C109.899 14.404 109.143 13.676 109.143 11.534V5.64H107.085V11.352C107.085 14.782 108.583 16.196 111.117 16.196ZM117.614 16H119.462V11.674C119.462 10.694 119.308 9.252 119.196 8.272H119.252L120.092 10.708L121.688 15.076H122.878L124.474 10.708L125.328 8.272H125.398C125.286 9.252 125.118 10.694 125.118 11.674V16H127.008V5.64H124.712L122.99 10.498C122.78 11.142 122.598 11.814 122.36 12.486H122.304C122.08 11.814 121.898 11.142 121.66 10.498L119.896 5.64H117.614V16Z" fill="white"/>
<path d="M56.272 38.224C58.704 38.224 60.976 36.224 60.976 31.904C60.976 27.584 58.784 25.872 56.528 25.872C54.4 25.872 52.608 27.376 52.608 29.904C52.608 32.464 54.096 33.648 56.096 33.648C56.832 33.648 57.92 33.152 58.496 32.304L58.352 30.464C57.888 31.328 57.232 31.648 56.64 31.648C55.84 31.648 55.2 31.184 55.2 29.904C55.2 28.528 55.84 28 56.592 28C57.472 28 58.384 28.8 58.384 31.904C58.384 34.928 57.376 35.92 56.08 35.92C55.408 35.92 54.672 35.536 54.272 35.088L52.768 36.8C53.52 37.552 54.672 38.224 56.272 38.224ZM62.998 38H70.518V35.696H68.374V26.08H66.278C65.446 26.608 64.614 26.928 63.334 27.168V28.928H65.526V35.696H62.998V38ZM72.172 38H80.428V35.6H78.252C77.708 35.6 76.892 35.68 76.3 35.76C78.124 33.92 79.884 31.664 79.884 29.616C79.884 27.344 78.284 25.872 75.98 25.872C74.284 25.872 73.196 26.464 72.028 27.712L73.58 29.248C74.156 28.64 74.78 28.096 75.596 28.096C76.556 28.096 77.148 28.688 77.148 29.776C77.148 31.504 75.148 33.664 72.172 36.368V38ZM82.674 41.632C84.898 40.96 86.082 39.408 86.082 37.344C86.082 35.68 85.394 34.688 84.146 34.688C83.154 34.688 82.37 35.328 82.37 36.288C82.37 37.312 83.186 37.888 84.066 37.888C84.45 37.888 84.802 37.776 85.074 37.536L84.178 35.968L84.21 37.84C84.226 38.768 83.49 39.632 82.098 40.112L82.674 41.632ZM91.7074 38.224C94.2034 38.224 95.8674 36.832 95.8674 34.992C95.8674 33.36 95.0034 32.368 93.8674 31.776V31.696C94.6834 31.136 95.3714 30.192 95.3714 29.056C95.3714 27.12 93.9474 25.872 91.8034 25.872C89.6114 25.872 88.0274 27.104 88.0274 29.088C88.0274 30.352 88.6514 31.264 89.5794 31.952V32.032C88.4754 32.608 87.6274 33.552 87.6274 35.04C87.6274 36.928 89.3714 38.224 91.7074 38.224ZM92.4274 31.008C91.2594 30.544 90.5234 30.032 90.5234 29.088C90.5234 28.24 91.0834 27.84 91.7394 27.84C92.5714 27.84 93.0674 28.384 93.0674 29.248C93.0674 29.856 92.8754 30.464 92.4274 31.008ZM91.7714 36.24C90.8434 36.24 90.0594 35.68 90.0594 34.704C90.0594 33.952 90.3794 33.232 90.8594 32.768C92.3154 33.392 93.2274 33.84 93.2274 34.88C93.2274 35.824 92.6034 36.24 91.7714 36.24ZM99.4734 38H102.337C102.545 33.344 102.833 31.088 105.585 27.824V26.08H97.4254V28.464H102.545C100.305 31.568 99.6974 34.08 99.4734 38ZM110.823 38.224C113.191 38.224 115.223 36.976 115.223 34.752C115.223 33.216 114.247 32.256 112.935 31.856V31.776C114.199 31.264 114.839 30.336 114.839 29.152C114.839 27.024 113.223 25.872 110.759 25.872C109.351 25.872 108.167 26.416 107.063 27.344L108.503 29.088C109.223 28.448 109.831 28.096 110.631 28.096C111.511 28.096 111.991 28.544 111.991 29.36C111.991 30.304 111.351 30.912 109.319 30.912V32.928C111.815 32.928 112.359 33.536 112.359 34.56C112.359 35.456 111.639 35.92 110.535 35.92C109.607 35.92 108.775 35.44 108.055 34.768L106.743 36.56C107.607 37.568 108.935 38.224 110.823 38.224Z" fill="white"/>
</svg>
