<svg width="210" height="101" viewBox="0 0 210 101" fill="none" xmlns="http://www.w3.org/2000/svg">
<rect width="210" height="75" rx="10" fill="#04B9F2"/>
<mask id="mask0_169_10286" style="mask-type:alpha" maskUnits="userSpaceOnUse" x="0" y="0" width="210" height="75">
<rect width="210" height="75" rx="10" fill="#4F46BA"/>
</mask>
<g mask="url(#mask0_169_10286)">
<path fill-rule="evenodd" clip-rule="evenodd" d="M261.435 -25.1587C273.319 -21.2511 277.061 -4.71315 277.396 7.83935C277.69 18.8456 267.519 26.6792 263.089 36.7813C259.541 44.8718 259.512 54.0432 254.079 61.0108C247.46 69.4989 239.613 77.7643 229.177 80.2713C217.668 83.0359 204.36 82.3711 194.988 75.2061C185.779 68.1659 186.845 54.3294 181.66 43.943C175.517 31.6392 160.996 22.6677 161.887 8.90168C162.8 -5.2242 172.504 -20.9184 186.104 -24.7878C200.087 -28.766 211.031 -9.13787 225.545 -9.20933C238.931 -9.27525 248.737 -29.3337 261.435 -25.1587Z" fill="#7B61FF"/>
<path opacity="0.1" fill-rule="evenodd" clip-rule="evenodd" d="M248.435 -25.1587C260.319 -21.2511 264.061 -4.71315 264.396 7.83935C264.69 18.8456 254.519 26.6792 250.089 36.7813C246.541 44.8718 246.512 54.0432 241.079 61.0108C234.46 69.4989 226.613 77.7643 216.177 80.2713C204.668 83.0359 191.36 82.3711 181.988 75.2061C172.779 68.1659 173.845 54.3294 168.66 43.943C162.517 31.6392 147.996 22.6677 148.887 8.90168C149.8 -5.2242 159.504 -20.9184 173.104 -24.7878C187.087 -28.766 198.031 -9.13787 212.545 -9.20933C225.931 -9.27525 235.737 -29.3337 248.435 -25.1587Z" fill="#23657A"/>
<path d="M35.8 22.509C47.86 22.6395 49 24.375 49 37.5L48.991 39.3C48.8605 51.36 47.125 52.5 34 52.5L32.2 52.491C20.713 52.3665 19.1335 50.787 19.009 39.2985L19 37.0365L19.009 35.7015C19.1365 23.9265 20.794 22.5615 33.082 22.5015L35.7985 22.509H35.8ZM28.375 30H27.5005C27.2608 29.9999 27.029 30.0858 26.8473 30.2422C26.6656 30.3985 26.5461 30.6149 26.5105 30.852L26.5 31.0005V36.4995C26.5 37.002 26.8705 37.4175 27.352 37.4895L27.5005 37.5H28.375C29.815 37.4999 31.2002 38.052 32.2453 39.0427C33.2904 40.0333 33.9157 41.387 33.9925 42.825L34 43.125V43.9995C34 44.502 34.3705 44.9175 34.852 44.9895L35.0005 45H40.4995C40.7392 45.0001 40.971 44.9142 41.1527 44.7578C41.3344 44.6015 41.4539 44.3851 41.4895 44.148L41.5 43.9995V43.125C41.4999 39.7111 40.1697 36.4316 37.7915 33.9823C35.4133 31.533 32.1744 30.1067 28.762 30.006L28.375 30Z" fill="white"/>
<path opacity="0.6" d="M71.332 32H73.404V23.362H76.33V21.64H68.406V23.362H71.332V32ZM78.024 32H80.096V21.64H78.024V32ZM82.6451 32H84.7171V29.088L86.0751 27.352L88.7631 32H91.0171L87.2931 25.714L90.4711 21.64H88.1891L84.7451 26.134H84.7171V21.64H82.6451V32ZM92.2428 32H94.3148V21.64H92.2428V32Z" fill="white"/>
<path d="M72.272 54.224C74.704 54.224 76.976 52.224 76.976 47.904C76.976 43.584 74.784 41.872 72.528 41.872C70.4 41.872 68.608 43.376 68.608 45.904C68.608 48.464 70.096 49.648 72.096 49.648C72.832 49.648 73.92 49.152 74.496 48.304L74.352 46.464C73.888 47.328 73.232 47.648 72.64 47.648C71.84 47.648 71.2 47.184 71.2 45.904C71.2 44.528 71.84 44 72.592 44C73.472 44 74.384 44.8 74.384 47.904C74.384 50.928 73.376 51.92 72.08 51.92C71.408 51.92 70.672 51.536 70.272 51.088L68.768 52.8C69.52 53.552 70.672 54.224 72.272 54.224ZM78.998 54H86.518V51.696H84.374V42.08H82.278C81.446 42.608 80.614 42.928 79.334 43.168V44.928H81.526V51.696H78.998V54ZM88.172 54H96.428V51.6H94.252C93.708 51.6 92.892 51.68 92.3 51.76C94.124 49.92 95.884 47.664 95.884 45.616C95.884 43.344 94.284 41.872 91.98 41.872C90.284 41.872 89.196 42.464 88.028 43.712L89.58 45.248C90.156 44.64 90.78 44.096 91.596 44.096C92.556 44.096 93.148 44.688 93.148 45.776C93.148 47.504 91.148 49.664 88.172 52.368V54ZM98.674 57.632C100.898 56.96 102.082 55.408 102.082 53.344C102.082 51.68 101.394 50.688 100.146 50.688C99.154 50.688 98.37 51.328 98.37 52.288C98.37 53.312 99.186 53.888 100.066 53.888C100.45 53.888 100.802 53.776 101.074 53.536L100.178 51.968L100.21 53.84C100.226 54.768 99.49 55.632 98.098 56.112L98.674 57.632ZM107.707 54.224C110.203 54.224 111.867 52.832 111.867 50.992C111.867 49.36 111.003 48.368 109.867 47.776V47.696C110.683 47.136 111.371 46.192 111.371 45.056C111.371 43.12 109.947 41.872 107.803 41.872C105.611 41.872 104.027 43.104 104.027 45.088C104.027 46.352 104.651 47.264 105.579 47.952V48.032C104.475 48.608 103.627 49.552 103.627 51.04C103.627 52.928 105.371 54.224 107.707 54.224ZM108.427 47.008C107.259 46.544 106.523 46.032 106.523 45.088C106.523 44.24 107.083 43.84 107.739 43.84C108.571 43.84 109.067 44.384 109.067 45.248C109.067 45.856 108.875 46.464 108.427 47.008ZM107.771 52.24C106.843 52.24 106.059 51.68 106.059 50.704C106.059 49.952 106.379 49.232 106.859 48.768C108.315 49.392 109.227 49.84 109.227 50.88C109.227 51.824 108.603 52.24 107.771 52.24ZM115.473 54H118.337C118.545 49.344 118.833 47.088 121.585 43.824V42.08H113.425V44.464H118.545C116.305 47.568 115.697 50.08 115.473 54ZM126.823 54.224C129.191 54.224 131.223 52.976 131.223 50.752C131.223 49.216 130.247 48.256 128.935 47.856V47.776C130.199 47.264 130.839 46.336 130.839 45.152C130.839 43.024 129.223 41.872 126.759 41.872C125.351 41.872 124.167 42.416 123.063 43.344L124.503 45.088C125.223 44.448 125.831 44.096 126.631 44.096C127.511 44.096 127.991 44.544 127.991 45.36C127.991 46.304 127.351 46.912 125.319 46.912V48.928C127.815 48.928 128.359 49.536 128.359 50.56C128.359 51.456 127.639 51.92 126.535 51.92C125.607 51.92 124.775 51.44 124.055 50.768L122.743 52.56C123.607 53.568 124.935 54.224 126.823 54.224Z" fill="white"/>
</g>
<path d="M61.276 97.196C63.068 97.196 64.034 96.174 64.034 94.928C64.034 93.486 62.83 93.038 61.724 92.618C60.856 92.31 60.086 92.03 60.086 91.302C60.086 90.714 60.52 90.21 61.486 90.21C62.158 90.21 62.704 90.504 63.222 90.882L63.838 90.07C63.25 89.594 62.41 89.216 61.472 89.216C59.82 89.216 58.854 90.154 58.854 91.358C58.854 92.66 60.016 93.164 61.066 93.57C61.906 93.878 62.816 94.228 62.816 94.998C62.816 95.67 62.312 96.202 61.304 96.202C60.394 96.202 59.722 95.824 59.064 95.292L58.434 96.146C59.148 96.734 60.198 97.196 61.276 97.196ZM65.8368 100.206H67.1108V97.644L67.0828 96.314C67.7688 96.874 68.4828 97.196 69.1688 97.196C70.9188 97.196 72.4728 95.684 72.4728 93.094C72.4728 90.742 71.4228 89.216 69.4488 89.216C68.5668 89.216 67.7268 89.706 67.0408 90.28H66.9988L66.8728 89.398H65.8368V100.206ZM68.9728 96.118C68.4688 96.118 67.7968 95.908 67.1108 95.334V91.33C67.8528 90.644 68.4968 90.28 69.1408 90.28C70.5828 90.28 71.1568 91.414 71.1568 93.108C71.1568 94.984 70.2188 96.118 68.9728 96.118ZM77.5845 97.196C78.6205 97.196 79.4185 96.846 80.0905 96.412L79.6285 95.558C79.0685 95.936 78.4665 96.174 77.7385 96.174C76.2825 96.174 75.3025 95.124 75.2045 93.514H80.3285C80.3705 93.318 80.3845 93.052 80.3845 92.786C80.3845 90.602 79.2925 89.216 77.3605 89.216C75.6105 89.216 73.9445 90.742 73.9445 93.22C73.9445 95.712 75.5545 97.196 77.5845 97.196ZM75.1905 92.59C75.3585 91.092 76.3105 90.238 77.3745 90.238C78.5785 90.238 79.2645 91.064 79.2645 92.59H75.1905ZM85.2524 97.196C86.1624 97.196 87.0444 96.832 87.7164 96.23L87.1704 95.376C86.6944 95.796 86.0644 96.132 85.3784 96.132C83.9784 96.132 83.0124 94.956 83.0124 93.22C83.0124 91.456 84.0204 90.28 85.4204 90.28C86.0084 90.28 86.4844 90.546 86.9324 90.952L87.5764 90.112C87.0444 89.622 86.3444 89.216 85.3504 89.216C83.4044 89.216 81.6964 90.672 81.6964 93.22C81.6964 95.726 83.2364 97.196 85.2524 97.196ZM91.5957 97.196C92.0717 97.196 92.5757 97.056 92.9957 96.902L92.7437 95.95C92.5057 96.048 92.1557 96.16 91.8897 96.16C91.0077 96.16 90.7137 95.614 90.7137 94.69V90.434H92.7717V89.398H90.7137V87.256H89.6357L89.4957 89.398L88.3057 89.482V90.434H89.4397V94.662C89.4397 96.174 89.9717 97.196 91.5957 97.196ZM94.4931 97H95.7671V92.128C96.2711 90.826 97.0551 90.364 97.6851 90.364C97.9931 90.364 98.1611 90.406 98.4271 90.49L98.6651 89.37C98.4131 89.258 98.1891 89.216 97.8531 89.216C96.9991 89.216 96.2151 89.818 95.6971 90.784H95.6551L95.5291 89.398H94.4931V97ZM102.133 97.196C103.183 97.196 103.939 96.636 104.653 95.81H104.681L104.793 97H105.843V89.398H104.569V94.802C103.855 95.698 103.295 96.076 102.525 96.076C101.517 96.076 101.083 95.474 101.083 94.06V89.398H99.8088V94.214C99.8088 96.16 100.537 97.196 102.133 97.196ZM108.425 97H109.699V91.484C110.385 90.714 111.029 90.322 111.603 90.322C112.583 90.322 113.031 90.924 113.031 92.352V97H114.305V91.484C115.019 90.714 115.621 90.322 116.209 90.322C117.189 90.322 117.637 90.924 117.637 92.352V97H118.911V92.184C118.911 90.252 118.155 89.216 116.601 89.216C115.677 89.216 114.879 89.818 114.081 90.658C113.787 89.762 113.157 89.216 111.995 89.216C111.085 89.216 110.287 89.79 109.629 90.504H109.587L109.461 89.398H108.425V97ZM122.03 97.196C122.548 97.196 122.968 96.79 122.968 96.216C122.968 95.628 122.548 95.236 122.03 95.236C121.526 95.236 121.12 95.628 121.12 96.216C121.12 96.79 121.526 97.196 122.03 97.196ZM128.045 97.196C128.955 97.196 129.837 96.832 130.509 96.23L129.963 95.376C129.487 95.796 128.857 96.132 128.171 96.132C126.771 96.132 125.805 94.956 125.805 93.22C125.805 91.456 126.813 90.28 128.213 90.28C128.801 90.28 129.277 90.546 129.725 90.952L130.369 90.112C129.837 89.622 129.137 89.216 128.143 89.216C126.197 89.216 124.489 90.672 124.489 93.22C124.489 95.726 126.029 97.196 128.045 97.196ZM134.785 97.196C136.647 97.196 138.299 95.726 138.299 93.22C138.299 90.672 136.647 89.216 134.785 89.216C132.909 89.216 131.257 90.672 131.257 93.22C131.257 95.726 132.909 97.196 134.785 97.196ZM134.785 96.132C133.455 96.132 132.573 94.956 132.573 93.22C132.573 91.456 133.455 90.28 134.785 90.28C136.101 90.28 136.983 91.456 136.983 93.22C136.983 94.956 136.101 96.132 134.785 96.132ZM140.321 97H141.595V91.484C142.281 90.714 142.925 90.322 143.499 90.322C144.479 90.322 144.927 90.924 144.927 92.352V97H146.201V91.484C146.915 90.714 147.517 90.322 148.105 90.322C149.085 90.322 149.533 90.924 149.533 92.352V97H150.807V92.184C150.807 90.252 150.051 89.216 148.497 89.216C147.573 89.216 146.775 89.818 145.977 90.658C145.683 89.762 145.053 89.216 143.891 89.216C142.981 89.216 142.183 89.79 141.525 90.504H141.483L141.357 89.398H140.321V97Z" fill="#BFBFBF"/>
</svg>
