<svg width="11" height="10" viewBox="0 0 11 10" fill="none" xmlns="http://www.w3.org/2000/svg">
<path d="M8.16699 2H10.667V3H9.66699V9.5C9.66699 9.63261 9.61431 9.75979 9.52055 9.85355C9.42678 9.94732 9.2996 10 9.16699 10H2.16699C2.03438 10 1.90721 9.94732 1.81344 9.85355C1.71967 9.75979 1.66699 9.63261 1.66699 9.5V3H0.666992V2H3.16699V0.5C3.16699 0.367392 3.21967 0.240215 3.31344 0.146447C3.40721 0.0526784 3.53438 0 3.66699 0H7.66699C7.7996 0 7.92678 0.0526784 8.02055 0.146447C8.11431 0.240215 8.16699 0.367392 8.16699 0.5V2ZM4.16699 4.5V7.5H5.16699V4.5H4.16699ZM6.16699 4.5V7.5H7.16699V4.5H6.16699ZM4.16699 1V2H7.16699V1H4.16699Z" fill="black" fill-opacity="0.25"/>
</svg>
