<svg width="210" height="101" viewBox="0 0 210 101" fill="none" xmlns="http://www.w3.org/2000/svg">
<rect width="210" height="75" rx="10" fill="#494C4E"/>
<mask id="mask0_169_10243" style="mask-type:alpha" maskUnits="userSpaceOnUse" x="0" y="0" width="210" height="75">
<rect width="210" height="75" rx="10" fill="#4F46BA"/>
</mask>
<g mask="url(#mask0_169_10243)">
<path d="M28.75 36V43.5H39.25V36H47.5V51H20.5V36H28.75ZM39.25 24V31.5H28.75V24H39.25Z" fill="white"/>
<path opacity="0.6" d="M73.25 32.196C75.784 32.196 77.254 30.782 77.254 27.352V21.64H75.266V27.534C75.266 29.676 74.468 30.404 73.25 30.404C72.032 30.404 71.276 29.676 71.276 27.534V21.64H69.218V27.352C69.218 30.782 70.716 32.196 73.25 32.196ZM79.7467 32H81.7067V27.856C81.7067 26.652 81.5387 25.35 81.4407 24.244H81.5107L82.5607 26.456L85.5567 32H87.6707V21.64H85.6967V25.77C85.6967 26.946 85.8647 28.332 85.9767 29.41H85.9067L84.8567 27.17L81.8467 21.64H79.7467V32ZM93.327 32.196C95.707 32.196 97.121 30.754 97.121 29.06C97.121 27.576 96.295 26.764 95.049 26.246L93.691 25.686C92.809 25.336 92.067 25.056 92.067 24.314C92.067 23.642 92.641 23.236 93.551 23.236C94.405 23.236 95.091 23.544 95.763 24.09L96.799 22.788C95.959 21.934 94.755 21.458 93.551 21.458C91.465 21.458 89.967 22.76 89.967 24.454C89.967 25.952 91.031 26.806 92.067 27.226L93.453 27.814C94.377 28.206 95.007 28.458 95.007 29.228C95.007 29.942 94.447 30.404 93.369 30.404C92.459 30.404 91.465 29.956 90.737 29.27L89.547 30.698C90.555 31.664 91.927 32.196 93.327 32.196ZM98.9693 32H101.041V28.318H102.427C104.653 28.318 106.417 27.268 106.417 24.902C106.417 22.438 104.653 21.64 102.371 21.64H98.9693V32ZM101.041 26.68V23.292H102.217C103.645 23.292 104.401 23.684 104.401 24.902C104.401 26.078 103.715 26.68 102.287 26.68H101.041ZM108.307 32H114.593V30.264H110.379V21.64H108.307V32ZM114.921 32H117.021L118.505 26.61C118.813 25.532 119.107 24.342 119.387 23.222H119.443C119.737 24.328 120.031 25.532 120.339 26.61L121.823 32H123.993L120.675 21.64H118.239L114.921 32ZM116.979 29.34H121.907V27.744H116.979V29.34ZM128.313 32.196C130.693 32.196 132.107 30.754 132.107 29.06C132.107 27.576 131.281 26.764 130.035 26.246L128.677 25.686C127.795 25.336 127.053 25.056 127.053 24.314C127.053 23.642 127.627 23.236 128.537 23.236C129.391 23.236 130.077 23.544 130.749 24.09L131.785 22.788C130.945 21.934 129.741 21.458 128.537 21.458C126.451 21.458 124.953 22.76 124.953 24.454C124.953 25.952 126.017 26.806 127.053 27.226L128.439 27.814C129.363 28.206 129.993 28.458 129.993 29.228C129.993 29.942 129.433 30.404 128.355 30.404C127.445 30.404 126.451 29.956 125.723 29.27L124.533 30.698C125.541 31.664 126.913 32.196 128.313 32.196ZM133.956 32H136.028V27.52H139.948V32H142.006V21.64H139.948V25.728H136.028V21.64H133.956V32Z" fill="white"/>
<path d="M68.672 54H76.928V51.6H74.752C74.208 51.6 73.392 51.68 72.8 51.76C74.624 49.92 76.384 47.664 76.384 45.616C76.384 43.344 74.784 41.872 72.48 41.872C70.784 41.872 69.696 42.464 68.528 43.712L70.08 45.248C70.656 44.64 71.28 44.096 72.096 44.096C73.056 44.096 73.648 44.688 73.648 45.776C73.648 47.504 71.648 49.664 68.672 52.368V54ZM82.214 54.224C84.582 54.224 86.614 52.976 86.614 50.752C86.614 49.216 85.638 48.256 84.326 47.856V47.776C85.59 47.264 86.23 46.336 86.23 45.152C86.23 43.024 84.614 41.872 82.15 41.872C80.742 41.872 79.558 42.416 78.454 43.344L79.894 45.088C80.614 44.448 81.222 44.096 82.022 44.096C82.902 44.096 83.382 44.544 83.382 45.36C83.382 46.304 82.742 46.912 80.71 46.912V48.928C83.206 48.928 83.75 49.536 83.75 50.56C83.75 51.456 83.03 51.92 81.926 51.92C80.998 51.92 80.166 51.44 79.446 50.768L78.134 52.56C78.998 53.568 80.326 54.224 82.214 54.224ZM88.172 54H96.428V51.6H94.252C93.708 51.6 92.892 51.68 92.3 51.76C94.124 49.92 95.884 47.664 95.884 45.616C95.884 43.344 94.284 41.872 91.98 41.872C90.284 41.872 89.196 42.464 88.028 43.712L89.58 45.248C90.156 44.64 90.78 44.096 91.596 44.096C92.556 44.096 93.148 44.688 93.148 45.776C93.148 47.504 91.148 49.664 88.172 52.368V54ZM98.674 57.632C100.898 56.96 102.082 55.408 102.082 53.344C102.082 51.68 101.394 50.688 100.146 50.688C99.154 50.688 98.37 51.328 98.37 52.288C98.37 53.312 99.186 53.888 100.066 53.888C100.45 53.888 100.802 53.776 101.074 53.536L100.178 51.968L100.21 53.84C100.226 54.768 99.49 55.632 98.098 56.112L98.674 57.632ZM107.707 54.224C110.203 54.224 111.867 52.832 111.867 50.992C111.867 49.36 111.003 48.368 109.867 47.776V47.696C110.683 47.136 111.371 46.192 111.371 45.056C111.371 43.12 109.947 41.872 107.803 41.872C105.611 41.872 104.027 43.104 104.027 45.088C104.027 46.352 104.651 47.264 105.579 47.952V48.032C104.475 48.608 103.627 49.552 103.627 51.04C103.627 52.928 105.371 54.224 107.707 54.224ZM108.427 47.008C107.259 46.544 106.523 46.032 106.523 45.088C106.523 44.24 107.083 43.84 107.739 43.84C108.571 43.84 109.067 44.384 109.067 45.248C109.067 45.856 108.875 46.464 108.427 47.008ZM107.771 52.24C106.843 52.24 106.059 51.68 106.059 50.704C106.059 49.952 106.379 49.232 106.859 48.768C108.315 49.392 109.227 49.84 109.227 50.88C109.227 51.824 108.603 52.24 107.771 52.24ZM115.473 54H118.337C118.545 49.344 118.833 47.088 121.585 43.824V42.08H113.425V44.464H118.545C116.305 47.568 115.697 50.08 115.473 54ZM126.823 54.224C129.191 54.224 131.223 52.976 131.223 50.752C131.223 49.216 130.247 48.256 128.935 47.856V47.776C130.199 47.264 130.839 46.336 130.839 45.152C130.839 43.024 129.223 41.872 126.759 41.872C125.351 41.872 124.167 42.416 123.063 43.344L124.503 45.088C125.223 44.448 125.831 44.096 126.631 44.096C127.511 44.096 127.991 44.544 127.991 45.36C127.991 46.304 127.351 46.912 125.319 46.912V48.928C127.815 48.928 128.359 49.536 128.359 50.56C128.359 51.456 127.639 51.92 126.535 51.92C125.607 51.92 124.775 51.44 124.055 50.768L122.743 52.56C123.607 53.568 124.935 54.224 126.823 54.224Z" fill="white"/>
<path fill-rule="evenodd" clip-rule="evenodd" d="M155.537 0.231545C155.471 -12.2786 169.966 -21.0764 181.763 -25.3786C192.106 -29.1509 202.763 -21.9924 213.749 -20.9979C222.547 -20.2015 231.254 -23.085 239.586 -20.1445C249.736 -16.5622 260.065 -11.7441 265.755 -2.64354C272.029 7.39205 275.623 20.2236 271.803 31.3849C268.05 42.3518 254.591 45.7333 246.388 53.9473C236.67 63.6775 232.771 80.295 219.435 83.8205C205.749 87.4381 187.787 83.2178 179.8 71.5492C171.59 59.5521 186.729 42.9436 182.054 29.2033C177.743 16.53 155.609 13.5981 155.537 0.231545Z" fill="#F9896B"/>
<path opacity="0.2" fill-rule="evenodd" clip-rule="evenodd" d="M145.537 3.23155C145.471 -9.2786 159.966 -18.0764 171.763 -22.3786C182.106 -26.1509 192.763 -18.9924 203.749 -17.9979C212.547 -17.2015 221.254 -20.085 229.586 -17.1445C239.736 -13.5622 250.065 -8.74414 255.755 0.356466C262.029 10.392 265.623 23.2236 261.803 34.3849C258.05 45.3518 244.591 48.7333 236.388 56.9473C226.67 66.6775 222.771 83.295 209.435 86.8205C195.749 90.4381 177.787 86.2178 169.8 74.5492C161.59 62.5521 176.729 45.9436 172.054 32.2033C167.743 19.53 145.609 16.5981 145.537 3.23155Z" fill="#F9896B"/>
</g>
<path d="M62.5 97.196C63.55 97.196 64.306 96.636 65.02 95.81H65.048L65.16 97H66.21V89.398H64.936V94.802C64.222 95.698 63.662 96.076 62.892 96.076C61.884 96.076 61.45 95.474 61.45 94.06V89.398H60.176V94.214C60.176 96.16 60.904 97.196 62.5 97.196ZM68.7919 97H70.0659V91.484C70.8219 90.728 71.3679 90.322 72.1379 90.322C73.1459 90.322 73.5799 90.924 73.5799 92.352V97H74.8679V92.184C74.8679 90.252 74.1399 89.216 72.5439 89.216C71.4939 89.216 70.7099 89.79 69.9959 90.504H69.9539L69.8279 89.398H68.7919V97ZM79.3248 97.196C81.1168 97.196 82.0828 96.174 82.0828 94.928C82.0828 93.486 80.8788 93.038 79.7728 92.618C78.9048 92.31 78.1348 92.03 78.1348 91.302C78.1348 90.714 78.5688 90.21 79.5348 90.21C80.2068 90.21 80.7528 90.504 81.2708 90.882L81.8868 90.07C81.2988 89.594 80.4588 89.216 79.5208 89.216C77.8688 89.216 76.9028 90.154 76.9028 91.358C76.9028 92.66 78.0648 93.164 79.1148 93.57C79.9548 93.878 80.8648 94.228 80.8648 94.998C80.8648 95.67 80.3608 96.202 79.3528 96.202C78.4428 96.202 77.7708 95.824 77.1128 95.292L76.4828 96.146C77.1968 96.734 78.2468 97.196 79.3248 97.196ZM83.8857 100.206H85.1597V97.644L85.1317 96.314C85.8177 96.874 86.5317 97.196 87.2177 97.196C88.9677 97.196 90.5217 95.684 90.5217 93.094C90.5217 90.742 89.4717 89.216 87.4977 89.216C86.6157 89.216 85.7757 89.706 85.0897 90.28H85.0477L84.9217 89.398H83.8857V100.206ZM87.0217 96.118C86.5177 96.118 85.8457 95.908 85.1597 95.334V91.33C85.9017 90.644 86.5457 90.28 87.1897 90.28C88.6317 90.28 89.2057 91.414 89.2057 93.108C89.2057 94.984 88.2677 96.118 87.0217 96.118ZM93.9113 97.196C94.2613 97.196 94.4573 97.14 94.6393 97.084L94.4713 96.104C94.3173 96.132 94.2613 96.132 94.2053 96.132C94.0093 96.132 93.8413 95.978 93.8413 95.572V85.87H92.5673V95.488C92.5673 96.58 92.9453 97.196 93.9113 97.196ZM98.2958 97.196C99.2338 97.196 100.088 96.706 100.802 96.104H100.858L100.97 97H102.02V92.338C102.02 90.448 101.236 89.216 99.3738 89.216C98.1558 89.216 97.0918 89.748 96.3918 90.196L96.8958 91.092C97.4838 90.686 98.2818 90.266 99.1778 90.266C100.424 90.266 100.732 91.204 100.732 92.184C97.4978 92.548 96.0698 93.374 96.0698 95.026C96.0698 96.398 97.0218 97.196 98.2958 97.196ZM98.6458 96.16C97.9038 96.16 97.3158 95.81 97.3158 94.942C97.3158 93.962 98.1698 93.332 100.732 93.038V95.152C100.004 95.81 99.3878 96.16 98.6458 96.16ZM106.422 97.196C108.214 97.196 109.18 96.174 109.18 94.928C109.18 93.486 107.976 93.038 106.87 92.618C106.002 92.31 105.232 92.03 105.232 91.302C105.232 90.714 105.666 90.21 106.632 90.21C107.304 90.21 107.85 90.504 108.368 90.882L108.984 90.07C108.396 89.594 107.556 89.216 106.618 89.216C104.966 89.216 104 90.154 104 91.358C104 92.66 105.162 93.164 106.212 93.57C107.052 93.878 107.962 94.228 107.962 94.998C107.962 95.67 107.458 96.202 106.45 96.202C105.54 96.202 104.868 95.824 104.21 95.292L103.58 96.146C104.294 96.734 105.344 97.196 106.422 97.196ZM110.983 97H112.257V91.484C113.013 90.728 113.559 90.322 114.329 90.322C115.337 90.322 115.771 90.924 115.771 92.352V97H117.059V92.184C117.059 90.252 116.331 89.216 114.735 89.216C113.685 89.216 112.915 89.79 112.215 90.476L112.257 88.908V85.87H110.983V97ZM120.131 97.196C120.649 97.196 121.069 96.79 121.069 96.216C121.069 95.628 120.649 95.236 120.131 95.236C119.627 95.236 119.221 95.628 119.221 96.216C119.221 96.79 119.627 97.196 120.131 97.196ZM126.147 97.196C127.057 97.196 127.939 96.832 128.611 96.23L128.065 95.376C127.589 95.796 126.959 96.132 126.273 96.132C124.873 96.132 123.907 94.956 123.907 93.22C123.907 91.456 124.915 90.28 126.315 90.28C126.903 90.28 127.379 90.546 127.827 90.952L128.471 90.112C127.939 89.622 127.239 89.216 126.245 89.216C124.299 89.216 122.591 90.672 122.591 93.22C122.591 95.726 124.131 97.196 126.147 97.196ZM132.887 97.196C134.749 97.196 136.401 95.726 136.401 93.22C136.401 90.672 134.749 89.216 132.887 89.216C131.011 89.216 129.359 90.672 129.359 93.22C129.359 95.726 131.011 97.196 132.887 97.196ZM132.887 96.132C131.557 96.132 130.675 94.956 130.675 93.22C130.675 91.456 131.557 90.28 132.887 90.28C134.203 90.28 135.085 91.456 135.085 93.22C135.085 94.956 134.203 96.132 132.887 96.132ZM138.423 97H139.697V91.484C140.383 90.714 141.027 90.322 141.601 90.322C142.581 90.322 143.029 90.924 143.029 92.352V97H144.303V91.484C145.017 90.714 145.619 90.322 146.207 90.322C147.187 90.322 147.635 90.924 147.635 92.352V97H148.909V92.184C148.909 90.252 148.153 89.216 146.599 89.216C145.675 89.216 144.877 89.818 144.079 90.658C143.785 89.762 143.155 89.216 141.993 89.216C141.083 89.216 140.285 89.79 139.627 90.504H139.585L139.459 89.398H138.423V97Z" fill="#BFBFBF"/>
</svg>
