<svg width="55" height="75" viewBox="0 0 55 75" fill="none" xmlns="http://www.w3.org/2000/svg">
<path fill-rule="evenodd" clip-rule="evenodd" d="M0.5374 0.231545C0.470567 -12.2786 14.9656 -21.0764 26.7625 -25.3786C37.1063 -29.1509 47.7633 -21.9924 58.7492 -20.9979C67.5475 -20.2015 76.2538 -23.085 84.5856 -20.1445C94.7357 -16.5622 105.065 -11.7441 110.755 -2.64353C117.029 7.39205 120.623 20.2236 116.803 31.3849C113.05 42.3518 99.591 45.7333 91.3875 53.9473C81.6698 63.6775 77.7714 80.295 64.4347 83.8205C50.7494 87.4381 32.7866 83.2178 24.8005 71.5492C16.5896 59.5521 31.7288 42.9436 27.0541 29.2033C22.7426 16.53 0.608809 13.5981 0.5374 0.231545Z" fill="#F9896B"/>
</svg>
